%TF.GenerationSoftware,KiCad,Pcbnew,9.0.7-9.0.7~ubuntu24.04.1*%
%TF.CreationDate,2026-05-07T16:47:43-07:00*%
%TF.ProjectId,Barometer_Module,4261726f-6d65-4746-9572-5f4d6f64756c,rev?*%
%TF.SameCoordinates,Original*%
%TF.FileFunction,Copper,L2,Bot*%
%TF.FilePolarity,Positive*%
%FSLAX46Y46*%
G04 Gerber Fmt 4.6, Leading zero omitted, Abs format (unit mm)*
G04 Created by KiCad (PCBNEW 9.0.7-9.0.7~ubuntu24.04.1) date 2026-05-07 16:47:43*
%MOMM*%
%LPD*%
G01*
G04 APERTURE LIST*
%TA.AperFunction,ComponentPad*%
%ADD10C,2.000000*%
%TD*%
%TA.AperFunction,ComponentPad*%
%ADD11R,2.030000X1.730000*%
%TD*%
%TA.AperFunction,ComponentPad*%
%ADD12O,2.030000X1.730000*%
%TD*%
%TA.AperFunction,ComponentPad*%
%ADD13C,1.397000*%
%TD*%
%TA.AperFunction,ComponentPad*%
%ADD14R,1.397000X1.397000*%
%TD*%
%TA.AperFunction,ComponentPad*%
%ADD15C,1.440000*%
%TD*%
%TA.AperFunction,ViaPad*%
%ADD16C,0.685800*%
%TD*%
%TA.AperFunction,ViaPad*%
%ADD17C,0.600000*%
%TD*%
%TA.AperFunction,Conductor*%
%ADD18C,1.016000*%
%TD*%
G04 APERTURE END LIST*
D10*
%TO.P,E1,1,1*%
%TO.N,Net-(D1-K)*%
X85061000Y-52950000D03*
%TD*%
%TO.P,E2,1,1*%
%TO.N,Net-(U1-ICC)*%
X91561000Y-53050000D03*
%TD*%
%TO.P,TP1,1,1*%
%TO.N,Net-(RV1-Pad2)*%
X97861000Y-53050000D03*
%TD*%
D11*
%TO.P,J1,1,Pin_1*%
%TO.N,+3.3V*%
X119561000Y-58450000D03*
D12*
%TO.P,J1,2,Pin_2*%
%TO.N,Net-(J1-Pin_2)*%
X119561000Y-60990000D03*
%TO.P,J1,3,Pin_3*%
%TO.N,Earth*%
X119561000Y-63530000D03*
%TD*%
D13*
%TO.P,D1,1,K*%
%TO.N,Net-(D1-K)*%
X84672000Y-58770000D03*
D14*
%TO.P,D1,2,A*%
%TO.N,Net-(D1-A)*%
X84672000Y-68930000D03*
%TD*%
D15*
%TO.P,RV1,1,1*%
%TO.N,Net-(RV1-Pad1)*%
X94261000Y-62430000D03*
%TO.P,RV1,2,2*%
%TO.N,Net-(RV1-Pad2)*%
X94261000Y-59890000D03*
%TO.P,RV1,3,3*%
X94261000Y-57350000D03*
%TD*%
D10*
%TO.P,TP2,1,1*%
%TO.N,Net-(RV1-Pad1)*%
X104661000Y-53050000D03*
%TD*%
D16*
%TO.N,Earth*%
X101111000Y-63400000D03*
X90561000Y-68650000D03*
X80250000Y-58390000D03*
X106111000Y-64650000D03*
D17*
X112511000Y-57100000D03*
%TO.N,+3.3V*%
X113561000Y-52550000D03*
D16*
X79323500Y-55387500D03*
%TD*%
D18*
%TO.N,+3.3V*%
X110723500Y-55387500D02*
X79323500Y-55387500D01*
X113561000Y-52550000D02*
X110723500Y-55387500D01*
%TD*%
%TA.AperFunction,Conductor*%
%TO.N,Earth*%
G36*
X117203539Y-48569685D02*
G01*
X117249294Y-48622489D01*
X117260500Y-48674000D01*
X117260500Y-48696047D01*
X117293199Y-48986271D01*
X117293202Y-48986285D01*
X117358196Y-49271044D01*
X117358197Y-49271046D01*
X117454665Y-49546738D01*
X117581393Y-49809890D01*
X117581395Y-49809893D01*
X117736792Y-50057206D01*
X117918902Y-50285565D01*
X118125435Y-50492098D01*
X118353794Y-50674208D01*
X118601107Y-50829605D01*
X118864263Y-50956335D01*
X119139955Y-51052803D01*
X119424714Y-51117798D01*
X119424723Y-51117799D01*
X119424728Y-51117800D01*
X119618210Y-51139599D01*
X119714953Y-51150499D01*
X119714956Y-51150500D01*
X119737000Y-51150500D01*
X119804039Y-51170185D01*
X119849794Y-51222989D01*
X119861000Y-51274500D01*
X119861000Y-56960500D01*
X119841315Y-57027539D01*
X119788511Y-57073294D01*
X119737000Y-57084500D01*
X118498129Y-57084500D01*
X118498123Y-57084501D01*
X118438516Y-57090908D01*
X118303671Y-57141202D01*
X118303664Y-57141206D01*
X118188455Y-57227452D01*
X118188452Y-57227455D01*
X118102206Y-57342664D01*
X118102202Y-57342671D01*
X118051908Y-57477517D01*
X118045501Y-57537116D01*
X118045500Y-57537135D01*
X118045500Y-59362870D01*
X118045501Y-59362876D01*
X118051908Y-59422483D01*
X118102202Y-59557328D01*
X118102206Y-59557335D01*
X118188452Y-59672544D01*
X118188455Y-59672547D01*
X118303664Y-59758793D01*
X118303673Y-59758798D01*
X118371723Y-59784178D01*
X118419632Y-59802047D01*
X118475566Y-59843917D01*
X118499984Y-59909381D01*
X118485133Y-59977654D01*
X118463982Y-60005910D01*
X118369454Y-60100438D01*
X118243120Y-60274321D01*
X118145541Y-60465829D01*
X118145540Y-60465832D01*
X118079124Y-60670240D01*
X118079124Y-60670243D01*
X118056708Y-60811770D01*
X118045500Y-60882533D01*
X118045500Y-61097467D01*
X118063245Y-61209500D01*
X118079124Y-61309756D01*
X118079124Y-61309759D01*
X118145540Y-61514167D01*
X118145541Y-61514170D01*
X118243120Y-61705678D01*
X118369455Y-61879563D01*
X118521437Y-62031545D01*
X118521440Y-62031547D01*
X118698226Y-62159990D01*
X118740892Y-62215320D01*
X118746871Y-62284933D01*
X118714265Y-62346728D01*
X118698227Y-62360626D01*
X118521760Y-62488838D01*
X118521759Y-62488838D01*
X118369838Y-62640759D01*
X118243547Y-62814583D01*
X118146003Y-63006024D01*
X118079610Y-63210364D01*
X118068581Y-63280000D01*
X119116440Y-63280000D01*
X119085755Y-63333147D01*
X119051000Y-63462857D01*
X119051000Y-63597143D01*
X119085755Y-63726853D01*
X119116440Y-63780000D01*
X118068581Y-63780000D01*
X118079610Y-63849635D01*
X118146003Y-64053975D01*
X118243547Y-64245416D01*
X118369838Y-64419240D01*
X118521759Y-64571161D01*
X118695583Y-64697452D01*
X118887024Y-64794996D01*
X119091358Y-64861388D01*
X119303573Y-64895000D01*
X119311000Y-64895000D01*
X119311000Y-63974560D01*
X119364147Y-64005245D01*
X119493857Y-64040000D01*
X119628143Y-64040000D01*
X119757853Y-64005245D01*
X119811000Y-63974560D01*
X119811000Y-64895000D01*
X119824681Y-64908681D01*
X119858166Y-64970004D01*
X119861000Y-64996362D01*
X119861000Y-72225500D01*
X119841315Y-72292539D01*
X119788511Y-72338294D01*
X119737000Y-72349500D01*
X119714952Y-72349500D01*
X119424728Y-72382199D01*
X119424714Y-72382202D01*
X119139955Y-72447196D01*
X119139953Y-72447197D01*
X118864261Y-72543665D01*
X118601109Y-72670393D01*
X118353795Y-72825791D01*
X118125435Y-73007901D01*
X117918901Y-73214435D01*
X117736791Y-73442795D01*
X117581393Y-73690109D01*
X117454665Y-73953261D01*
X117358197Y-74228953D01*
X117358196Y-74228955D01*
X117293202Y-74513714D01*
X117293199Y-74513728D01*
X117260500Y-74803952D01*
X117260500Y-74826000D01*
X117240815Y-74893039D01*
X117188011Y-74938794D01*
X117136500Y-74950000D01*
X69985500Y-74950000D01*
X69918461Y-74930315D01*
X69872706Y-74877511D01*
X69861500Y-74826000D01*
X69861500Y-74803956D01*
X69861499Y-74803952D01*
X69828800Y-74513728D01*
X69828799Y-74513723D01*
X69828798Y-74513714D01*
X69763803Y-74228955D01*
X69667335Y-73953263D01*
X69540605Y-73690107D01*
X69385208Y-73442794D01*
X69203098Y-73214435D01*
X68996565Y-73007902D01*
X68768206Y-72825792D01*
X68520893Y-72670395D01*
X68520890Y-72670393D01*
X68257738Y-72543665D01*
X67982046Y-72447197D01*
X67982044Y-72447196D01*
X67762280Y-72397036D01*
X67697286Y-72382202D01*
X67697283Y-72382201D01*
X67697271Y-72382199D01*
X67407047Y-72349500D01*
X67407041Y-72349500D01*
X67385000Y-72349500D01*
X67317961Y-72329815D01*
X67272206Y-72277011D01*
X67261000Y-72225500D01*
X67261000Y-68183635D01*
X83473000Y-68183635D01*
X83473000Y-69676370D01*
X83473001Y-69676376D01*
X83479408Y-69735983D01*
X83529702Y-69870828D01*
X83529706Y-69870835D01*
X83615952Y-69986044D01*
X83615955Y-69986047D01*
X83731164Y-70072293D01*
X83731171Y-70072297D01*
X83866017Y-70122591D01*
X83866016Y-70122591D01*
X83872944Y-70123335D01*
X83925627Y-70129000D01*
X85418372Y-70128999D01*
X85477983Y-70122591D01*
X85612831Y-70072296D01*
X85728046Y-69986046D01*
X85814296Y-69870831D01*
X85864591Y-69735983D01*
X85871000Y-69676373D01*
X85870999Y-68432486D01*
X99485500Y-68432486D01*
X99485500Y-68727513D01*
X99517571Y-68971113D01*
X99524007Y-69019993D01*
X99524008Y-69019995D01*
X99600361Y-69304951D01*
X99600364Y-69304961D01*
X99713254Y-69577500D01*
X99713258Y-69577510D01*
X99860761Y-69832993D01*
X100040352Y-70067040D01*
X100040358Y-70067047D01*
X100248952Y-70275641D01*
X100248959Y-70275647D01*
X100483006Y-70455238D01*
X100738489Y-70602741D01*
X100738490Y-70602741D01*
X100738493Y-70602743D01*
X101011048Y-70715639D01*
X101296007Y-70791993D01*
X101588494Y-70830500D01*
X101588501Y-70830500D01*
X101883499Y-70830500D01*
X101883506Y-70830500D01*
X102175993Y-70791993D01*
X102460952Y-70715639D01*
X102733507Y-70602743D01*
X102988994Y-70455238D01*
X103223042Y-70275646D01*
X103431646Y-70067042D01*
X103611238Y-69832994D01*
X103758743Y-69577507D01*
X103871639Y-69304952D01*
X103947993Y-69019993D01*
X103986500Y-68727506D01*
X103986500Y-68432494D01*
X103947993Y-68140007D01*
X103871639Y-67855048D01*
X103758743Y-67582493D01*
X103611238Y-67327006D01*
X103431646Y-67092958D01*
X103431641Y-67092952D01*
X103223047Y-66884358D01*
X103223040Y-66884352D01*
X102988993Y-66704761D01*
X102733510Y-66557258D01*
X102733500Y-66557254D01*
X102460961Y-66444364D01*
X102460954Y-66444362D01*
X102460952Y-66444361D01*
X102175993Y-66368007D01*
X102127113Y-66361571D01*
X101883513Y-66329500D01*
X101883506Y-66329500D01*
X101588494Y-66329500D01*
X101588486Y-66329500D01*
X101310085Y-66366153D01*
X101296007Y-66368007D01*
X101011048Y-66444361D01*
X101011038Y-66444364D01*
X100738499Y-66557254D01*
X100738489Y-66557258D01*
X100483006Y-66704761D01*
X100248959Y-66884352D01*
X100248952Y-66884358D01*
X100040358Y-67092952D01*
X100040352Y-67092959D01*
X99860761Y-67327006D01*
X99713258Y-67582489D01*
X99713254Y-67582499D01*
X99600364Y-67855038D01*
X99600361Y-67855048D01*
X99528292Y-68124017D01*
X99524008Y-68140004D01*
X99524006Y-68140015D01*
X99485500Y-68432486D01*
X85870999Y-68432486D01*
X85870999Y-68183628D01*
X85864591Y-68124017D01*
X85814296Y-67989169D01*
X85814295Y-67989168D01*
X85814293Y-67989164D01*
X85728047Y-67873955D01*
X85728044Y-67873952D01*
X85612835Y-67787706D01*
X85612828Y-67787702D01*
X85477982Y-67737408D01*
X85477983Y-67737408D01*
X85418383Y-67731001D01*
X85418381Y-67731000D01*
X85418373Y-67731000D01*
X85418364Y-67731000D01*
X83925629Y-67731000D01*
X83925623Y-67731001D01*
X83866016Y-67737408D01*
X83731171Y-67787702D01*
X83731164Y-67787706D01*
X83615955Y-67873952D01*
X83615952Y-67873955D01*
X83529706Y-67989164D01*
X83529702Y-67989171D01*
X83479408Y-68124017D01*
X83473001Y-68183616D01*
X83473001Y-68183623D01*
X83473000Y-68183635D01*
X67261000Y-68183635D01*
X67261000Y-58675631D01*
X83473000Y-58675631D01*
X83473000Y-58864368D01*
X83502522Y-59050763D01*
X83502523Y-59050767D01*
X83560843Y-59230256D01*
X83646523Y-59398413D01*
X83757454Y-59551096D01*
X83890904Y-59684546D01*
X84043587Y-59795477D01*
X84211744Y-59881157D01*
X84391233Y-59939477D01*
X84447919Y-59948455D01*
X84577632Y-59969000D01*
X84577637Y-59969000D01*
X84766368Y-59969000D01*
X84869920Y-59952598D01*
X84952767Y-59939477D01*
X85132256Y-59881157D01*
X85300413Y-59795477D01*
X85453096Y-59684546D01*
X85586546Y-59551096D01*
X85697477Y-59398413D01*
X85783157Y-59230256D01*
X85841477Y-59050767D01*
X85856003Y-58959055D01*
X85871000Y-58864368D01*
X85871000Y-58675631D01*
X85841477Y-58489236D01*
X85841477Y-58489233D01*
X85783157Y-58309744D01*
X85697477Y-58141587D01*
X85586546Y-57988904D01*
X85453096Y-57855454D01*
X85300413Y-57744523D01*
X85132256Y-57658843D01*
X84952767Y-57600523D01*
X84952765Y-57600522D01*
X84952763Y-57600522D01*
X84766368Y-57571000D01*
X84766363Y-57571000D01*
X84577637Y-57571000D01*
X84577632Y-57571000D01*
X84391236Y-57600522D01*
X84211741Y-57658844D01*
X84043586Y-57744523D01*
X83956475Y-57807813D01*
X83890904Y-57855454D01*
X83890902Y-57855456D01*
X83890901Y-57855456D01*
X83757456Y-57988901D01*
X83757456Y-57988902D01*
X83757454Y-57988904D01*
X83709813Y-58054475D01*
X83646523Y-58141586D01*
X83560844Y-58309741D01*
X83502522Y-58489236D01*
X83473000Y-58675631D01*
X67261000Y-58675631D01*
X67261000Y-55288166D01*
X78315000Y-55288166D01*
X78315000Y-55486833D01*
X78353754Y-55681661D01*
X78353756Y-55681669D01*
X78429777Y-55865201D01*
X78429782Y-55865210D01*
X78540146Y-56030380D01*
X78540149Y-56030384D01*
X78680615Y-56170850D01*
X78680619Y-56170853D01*
X78845789Y-56281217D01*
X78845795Y-56281220D01*
X78845796Y-56281221D01*
X79029331Y-56357244D01*
X79224166Y-56395999D01*
X79224170Y-56396000D01*
X79224171Y-56396000D01*
X93202138Y-56396000D01*
X93269177Y-56415685D01*
X93314932Y-56468489D01*
X93324876Y-56537647D01*
X93302457Y-56592883D01*
X93255110Y-56658050D01*
X93217135Y-56710318D01*
X93129916Y-56881493D01*
X93070553Y-57064197D01*
X93040500Y-57253945D01*
X93040500Y-57446054D01*
X93070553Y-57635802D01*
X93129916Y-57818506D01*
X93216738Y-57988901D01*
X93217135Y-57989681D01*
X93330055Y-58145102D01*
X93465898Y-58280945D01*
X93621319Y-58393865D01*
X93792491Y-58481082D01*
X93792493Y-58481083D01*
X93857081Y-58502069D01*
X93914756Y-58541506D01*
X93941955Y-58605865D01*
X93930041Y-58674711D01*
X93882797Y-58726187D01*
X93857081Y-58737931D01*
X93792493Y-58758916D01*
X93621318Y-58846135D01*
X93596230Y-58864363D01*
X93465898Y-58959055D01*
X93465896Y-58959057D01*
X93465895Y-58959057D01*
X93330057Y-59094895D01*
X93330057Y-59094896D01*
X93330055Y-59094898D01*
X93281560Y-59161645D01*
X93217135Y-59250318D01*
X93129916Y-59421493D01*
X93070553Y-59604197D01*
X93040500Y-59793945D01*
X93040500Y-59986054D01*
X93070553Y-60175802D01*
X93129916Y-60358506D01*
X93184601Y-60465830D01*
X93217135Y-60529681D01*
X93330055Y-60685102D01*
X93465898Y-60820945D01*
X93621319Y-60933865D01*
X93792491Y-61021082D01*
X93792493Y-61021083D01*
X93857081Y-61042069D01*
X93914756Y-61081506D01*
X93941955Y-61145865D01*
X93930041Y-61214711D01*
X93882797Y-61266187D01*
X93857081Y-61277931D01*
X93792493Y-61298916D01*
X93621318Y-61386135D01*
X93532645Y-61450560D01*
X93465898Y-61499055D01*
X93465896Y-61499057D01*
X93465895Y-61499057D01*
X93330057Y-61634895D01*
X93330057Y-61634896D01*
X93330055Y-61634898D01*
X93281560Y-61701645D01*
X93217135Y-61790318D01*
X93129916Y-61961493D01*
X93070553Y-62144197D01*
X93040500Y-62333945D01*
X93040500Y-62526054D01*
X93070553Y-62715802D01*
X93129916Y-62898506D01*
X93129918Y-62898509D01*
X93217135Y-63069681D01*
X93330055Y-63225102D01*
X93465898Y-63360945D01*
X93621319Y-63473865D01*
X93770123Y-63549685D01*
X93792493Y-63561083D01*
X93883845Y-63590764D01*
X93975199Y-63620447D01*
X94164945Y-63650500D01*
X94164946Y-63650500D01*
X94357054Y-63650500D01*
X94357055Y-63650500D01*
X94546801Y-63620447D01*
X94729509Y-63561082D01*
X94900681Y-63473865D01*
X95056102Y-63360945D01*
X95191945Y-63225102D01*
X95304865Y-63069681D01*
X95392082Y-62898509D01*
X95451447Y-62715801D01*
X95481500Y-62526055D01*
X95481500Y-62333945D01*
X95451447Y-62144199D01*
X95392082Y-61961491D01*
X95304865Y-61790319D01*
X95191945Y-61634898D01*
X95056102Y-61499055D01*
X94900681Y-61386135D01*
X94750778Y-61309755D01*
X94729504Y-61298915D01*
X94664919Y-61277931D01*
X94607243Y-61238494D01*
X94580044Y-61174136D01*
X94591958Y-61105289D01*
X94639202Y-61053813D01*
X94664919Y-61042069D01*
X94729504Y-61021084D01*
X94729506Y-61021082D01*
X94729509Y-61021082D01*
X94900681Y-60933865D01*
X95056102Y-60820945D01*
X95191945Y-60685102D01*
X95304865Y-60529681D01*
X95392082Y-60358509D01*
X95451447Y-60175801D01*
X95481500Y-59986055D01*
X95481500Y-59793945D01*
X95451447Y-59604199D01*
X95421764Y-59512845D01*
X95392083Y-59421493D01*
X95304864Y-59250318D01*
X95191945Y-59094898D01*
X95056102Y-58959055D01*
X94900681Y-58846135D01*
X94729504Y-58758915D01*
X94664919Y-58737931D01*
X94607243Y-58698494D01*
X94580044Y-58634136D01*
X94591958Y-58565289D01*
X94639202Y-58513813D01*
X94664919Y-58502069D01*
X94729504Y-58481084D01*
X94729506Y-58481082D01*
X94729509Y-58481082D01*
X94900681Y-58393865D01*
X95056102Y-58280945D01*
X95191945Y-58145102D01*
X95304865Y-57989681D01*
X95392082Y-57818509D01*
X95451447Y-57635801D01*
X95481500Y-57446055D01*
X95481500Y-57253945D01*
X95451447Y-57064199D01*
X95392082Y-56881491D01*
X95304865Y-56710319D01*
X95219543Y-56592883D01*
X95196064Y-56527080D01*
X95211889Y-56459026D01*
X95261995Y-56410331D01*
X95319862Y-56396000D01*
X110822830Y-56396000D01*
X110822831Y-56395999D01*
X111017669Y-56357244D01*
X111201204Y-56281221D01*
X111366381Y-56170853D01*
X111506853Y-56030381D01*
X114344353Y-53192881D01*
X114454721Y-53027704D01*
X114530744Y-52844168D01*
X114569500Y-52649329D01*
X114569500Y-52450671D01*
X114569500Y-52450668D01*
X114569499Y-52450666D01*
X114554250Y-52374003D01*
X114530744Y-52255832D01*
X114471943Y-52113875D01*
X114454722Y-52072298D01*
X114454717Y-52072289D01*
X114344353Y-51907119D01*
X114344350Y-51907115D01*
X114203884Y-51766649D01*
X114203880Y-51766646D01*
X114038710Y-51656282D01*
X114038701Y-51656277D01*
X113855168Y-51580256D01*
X113855160Y-51580254D01*
X113660332Y-51541500D01*
X113660329Y-51541500D01*
X113461671Y-51541500D01*
X113461668Y-51541500D01*
X113266839Y-51580254D01*
X113266831Y-51580256D01*
X113083298Y-51656277D01*
X113083289Y-51656282D01*
X112918119Y-51766646D01*
X112918115Y-51766649D01*
X110342085Y-54342681D01*
X110280762Y-54376166D01*
X110254404Y-54379000D01*
X105753389Y-54379000D01*
X105686350Y-54359315D01*
X105640595Y-54306511D01*
X105630651Y-54237353D01*
X105659676Y-54173797D01*
X105665708Y-54167319D01*
X105678345Y-54154682D01*
X105805517Y-54027510D01*
X105944343Y-53836433D01*
X106051568Y-53625992D01*
X106124553Y-53401368D01*
X106161500Y-53168097D01*
X106161500Y-52931902D01*
X106124553Y-52698631D01*
X106051566Y-52474003D01*
X105944342Y-52263566D01*
X105938722Y-52255831D01*
X105805517Y-52072490D01*
X105638510Y-51905483D01*
X105447433Y-51766657D01*
X105447411Y-51766646D01*
X105236996Y-51659433D01*
X105012368Y-51586446D01*
X104779097Y-51549500D01*
X104779092Y-51549500D01*
X104542908Y-51549500D01*
X104542903Y-51549500D01*
X104309631Y-51586446D01*
X104085003Y-51659433D01*
X103874566Y-51766657D01*
X103765550Y-51845862D01*
X103683490Y-51905483D01*
X103683488Y-51905485D01*
X103683487Y-51905485D01*
X103516485Y-52072487D01*
X103516485Y-52072488D01*
X103516483Y-52072490D01*
X103456862Y-52154550D01*
X103377657Y-52263566D01*
X103270433Y-52474003D01*
X103197446Y-52698631D01*
X103160500Y-52931902D01*
X103160500Y-53168097D01*
X103197446Y-53401368D01*
X103270433Y-53625996D01*
X103326704Y-53736433D01*
X103377657Y-53836433D01*
X103516483Y-54027510D01*
X103516485Y-54027512D01*
X103656292Y-54167319D01*
X103689777Y-54228642D01*
X103684793Y-54298334D01*
X103642921Y-54354267D01*
X103577457Y-54378684D01*
X103568611Y-54379000D01*
X98953389Y-54379000D01*
X98886350Y-54359315D01*
X98840595Y-54306511D01*
X98830651Y-54237353D01*
X98859676Y-54173797D01*
X98865708Y-54167319D01*
X98878345Y-54154682D01*
X99005517Y-54027510D01*
X99144343Y-53836433D01*
X99251568Y-53625992D01*
X99324553Y-53401368D01*
X99361500Y-53168097D01*
X99361500Y-52931902D01*
X99324553Y-52698631D01*
X99251566Y-52474003D01*
X99144342Y-52263566D01*
X99138722Y-52255831D01*
X99005517Y-52072490D01*
X98838510Y-51905483D01*
X98647433Y-51766657D01*
X98647411Y-51766646D01*
X98436996Y-51659433D01*
X98212368Y-51586446D01*
X97979097Y-51549500D01*
X97979092Y-51549500D01*
X97742908Y-51549500D01*
X97742903Y-51549500D01*
X97509631Y-51586446D01*
X97285003Y-51659433D01*
X97074566Y-51766657D01*
X96965550Y-51845862D01*
X96883490Y-51905483D01*
X96883488Y-51905485D01*
X96883487Y-51905485D01*
X96716485Y-52072487D01*
X96716485Y-52072488D01*
X96716483Y-52072490D01*
X96656862Y-52154550D01*
X96577657Y-52263566D01*
X96470433Y-52474003D01*
X96397446Y-52698631D01*
X96360500Y-52931902D01*
X96360500Y-53168097D01*
X96397446Y-53401368D01*
X96470433Y-53625996D01*
X96526704Y-53736433D01*
X96577657Y-53836433D01*
X96716483Y-54027510D01*
X96716485Y-54027512D01*
X96856292Y-54167319D01*
X96889777Y-54228642D01*
X96884793Y-54298334D01*
X96842921Y-54354267D01*
X96777457Y-54378684D01*
X96768611Y-54379000D01*
X92653389Y-54379000D01*
X92586350Y-54359315D01*
X92540595Y-54306511D01*
X92530651Y-54237353D01*
X92559676Y-54173797D01*
X92565708Y-54167319D01*
X92578345Y-54154682D01*
X92705517Y-54027510D01*
X92844343Y-53836433D01*
X92951568Y-53625992D01*
X93024553Y-53401368D01*
X93061500Y-53168097D01*
X93061500Y-52931902D01*
X93024553Y-52698631D01*
X92951566Y-52474003D01*
X92844342Y-52263566D01*
X92838722Y-52255831D01*
X92705517Y-52072490D01*
X92538510Y-51905483D01*
X92347433Y-51766657D01*
X92347411Y-51766646D01*
X92136996Y-51659433D01*
X91912368Y-51586446D01*
X91679097Y-51549500D01*
X91679092Y-51549500D01*
X91442908Y-51549500D01*
X91442903Y-51549500D01*
X91209631Y-51586446D01*
X90985003Y-51659433D01*
X90774566Y-51766657D01*
X90665550Y-51845862D01*
X90583490Y-51905483D01*
X90583488Y-51905485D01*
X90583487Y-51905485D01*
X90416485Y-52072487D01*
X90416485Y-52072488D01*
X90416483Y-52072490D01*
X90356862Y-52154550D01*
X90277657Y-52263566D01*
X90170433Y-52474003D01*
X90097446Y-52698631D01*
X90060500Y-52931902D01*
X90060500Y-53168097D01*
X90097446Y-53401368D01*
X90170433Y-53625996D01*
X90226704Y-53736433D01*
X90277657Y-53836433D01*
X90416483Y-54027510D01*
X90416485Y-54027512D01*
X90556292Y-54167319D01*
X90589777Y-54228642D01*
X90584793Y-54298334D01*
X90542921Y-54354267D01*
X90477457Y-54378684D01*
X90468611Y-54379000D01*
X86028586Y-54379000D01*
X85961547Y-54359315D01*
X85915792Y-54306511D01*
X85905848Y-54237353D01*
X85934873Y-54173797D01*
X85955700Y-54154682D01*
X86038510Y-54094517D01*
X86205517Y-53927510D01*
X86344343Y-53736433D01*
X86451568Y-53525992D01*
X86524553Y-53301368D01*
X86545662Y-53168092D01*
X86561500Y-53068097D01*
X86561500Y-52831902D01*
X86524553Y-52598631D01*
X86451566Y-52374003D01*
X86344342Y-52163566D01*
X86278171Y-52072490D01*
X86205517Y-51972490D01*
X86038510Y-51805483D01*
X85847433Y-51666657D01*
X85827061Y-51656277D01*
X85636996Y-51559433D01*
X85412368Y-51486446D01*
X85179097Y-51449500D01*
X85179092Y-51449500D01*
X84942908Y-51449500D01*
X84942903Y-51449500D01*
X84709631Y-51486446D01*
X84485003Y-51559433D01*
X84274566Y-51666657D01*
X84165550Y-51745862D01*
X84083490Y-51805483D01*
X84083488Y-51805485D01*
X84083487Y-51805485D01*
X83916485Y-51972487D01*
X83916485Y-51972488D01*
X83916483Y-51972490D01*
X83856862Y-52054550D01*
X83777657Y-52163566D01*
X83670433Y-52374003D01*
X83597446Y-52598631D01*
X83560500Y-52831902D01*
X83560500Y-53068097D01*
X83597446Y-53301368D01*
X83670433Y-53525996D01*
X83777657Y-53736433D01*
X83916483Y-53927510D01*
X84083490Y-54094517D01*
X84166300Y-54154682D01*
X84208965Y-54210012D01*
X84214944Y-54279626D01*
X84182338Y-54341421D01*
X84121499Y-54375778D01*
X84093414Y-54379000D01*
X79224166Y-54379000D01*
X79029338Y-54417754D01*
X79029330Y-54417756D01*
X78845798Y-54493777D01*
X78845789Y-54493782D01*
X78680619Y-54604146D01*
X78680615Y-54604149D01*
X78540149Y-54744615D01*
X78540146Y-54744619D01*
X78429782Y-54909789D01*
X78429777Y-54909798D01*
X78353756Y-55093330D01*
X78353754Y-55093338D01*
X78315000Y-55288166D01*
X67261000Y-55288166D01*
X67261000Y-51274500D01*
X67280685Y-51207461D01*
X67333489Y-51161706D01*
X67385000Y-51150500D01*
X67407044Y-51150500D01*
X67407045Y-51150499D01*
X67555371Y-51133787D01*
X67697271Y-51117800D01*
X67697274Y-51117799D01*
X67697286Y-51117798D01*
X67982045Y-51052803D01*
X68257737Y-50956335D01*
X68520893Y-50829605D01*
X68768206Y-50674208D01*
X68996565Y-50492098D01*
X69203098Y-50285565D01*
X69385208Y-50057206D01*
X69540605Y-49809893D01*
X69667335Y-49546737D01*
X69763803Y-49271045D01*
X69828798Y-48986286D01*
X69861500Y-48696041D01*
X69861500Y-48674000D01*
X69881185Y-48606961D01*
X69933989Y-48561206D01*
X69985500Y-48550000D01*
X117136500Y-48550000D01*
X117203539Y-48569685D01*
G37*
%TD.AperFunction*%
%TD*%
M02*
