%TF.GenerationSoftware,KiCad,Pcbnew,9.0.7-9.0.7~ubuntu24.04.1*%
%TF.CreationDate,2026-05-07T16:47:43-07:00*%
%TF.ProjectId,Barometer_Module,4261726f-6d65-4746-9572-5f4d6f64756c,rev?*%
%TF.SameCoordinates,Original*%
%TF.FileFunction,Copper,L1,Top*%
%TF.FilePolarity,Positive*%
%FSLAX46Y46*%
G04 Gerber Fmt 4.6, Leading zero omitted, Abs format (unit mm)*
G04 Created by KiCad (PCBNEW 9.0.7-9.0.7~ubuntu24.04.1) date 2026-05-07 16:47:43*
%MOMM*%
%LPD*%
G01*
G04 APERTURE LIST*
G04 Aperture macros list*
%AMRoundRect*
0 Rectangle with rounded corners*
0 $1 Rounding radius*
0 $2 $3 $4 $5 $6 $7 $8 $9 X,Y pos of 4 corners*
0 Add a 4 corners polygon primitive as box body*
4,1,4,$2,$3,$4,$5,$6,$7,$8,$9,$2,$3,0*
0 Add four circle primitives for the rounded corners*
1,1,$1+$1,$2,$3*
1,1,$1+$1,$4,$5*
1,1,$1+$1,$6,$7*
1,1,$1+$1,$8,$9*
0 Add four rect primitives between the rounded corners*
20,1,$1+$1,$2,$3,$4,$5,0*
20,1,$1+$1,$4,$5,$6,$7,0*
20,1,$1+$1,$6,$7,$8,$9,0*
20,1,$1+$1,$8,$9,$2,$3,0*%
G04 Aperture macros list end*
%TA.AperFunction,SMDPad,CuDef*%
%ADD10RoundRect,0.237500X-0.300000X-0.237500X0.300000X-0.237500X0.300000X0.237500X-0.300000X0.237500X0*%
%TD*%
%TA.AperFunction,SMDPad,CuDef*%
%ADD11RoundRect,0.237500X-0.250000X-0.237500X0.250000X-0.237500X0.250000X0.237500X-0.250000X0.237500X0*%
%TD*%
%TA.AperFunction,ComponentPad*%
%ADD12C,2.000000*%
%TD*%
%TA.AperFunction,SMDPad,CuDef*%
%ADD13RoundRect,0.137500X-0.612500X-0.137500X0.612500X-0.137500X0.612500X0.137500X-0.612500X0.137500X0*%
%TD*%
%TA.AperFunction,SMDPad,CuDef*%
%ADD14R,2.300000X0.600000*%
%TD*%
%TA.AperFunction,SMDPad,CuDef*%
%ADD15RoundRect,0.250000X0.337500X0.475000X-0.337500X0.475000X-0.337500X-0.475000X0.337500X-0.475000X0*%
%TD*%
%TA.AperFunction,ComponentPad*%
%ADD16R,2.030000X1.730000*%
%TD*%
%TA.AperFunction,ComponentPad*%
%ADD17O,2.030000X1.730000*%
%TD*%
%TA.AperFunction,ComponentPad*%
%ADD18C,1.397000*%
%TD*%
%TA.AperFunction,ComponentPad*%
%ADD19R,1.397000X1.397000*%
%TD*%
%TA.AperFunction,ComponentPad*%
%ADD20C,1.440000*%
%TD*%
%TA.AperFunction,SMDPad,CuDef*%
%ADD21RoundRect,0.237500X-0.237500X0.300000X-0.237500X-0.300000X0.237500X-0.300000X0.237500X0.300000X0*%
%TD*%
%TA.AperFunction,SMDPad,CuDef*%
%ADD22RoundRect,0.075000X0.910000X0.225000X-0.910000X0.225000X-0.910000X-0.225000X0.910000X-0.225000X0*%
%TD*%
%TA.AperFunction,ViaPad*%
%ADD23C,0.685800*%
%TD*%
%TA.AperFunction,ViaPad*%
%ADD24C,0.600000*%
%TD*%
%TA.AperFunction,Conductor*%
%ADD25C,1.016000*%
%TD*%
%TA.AperFunction,Conductor*%
%ADD26C,0.500000*%
%TD*%
%TA.AperFunction,Conductor*%
%ADD27C,0.700000*%
%TD*%
%TA.AperFunction,Conductor*%
%ADD28C,0.762000*%
%TD*%
%TA.AperFunction,Conductor*%
%ADD29C,0.381000*%
%TD*%
G04 APERTURE END LIST*
D10*
%TO.P,C1,1*%
%TO.N,+3.3V*%
X109336000Y-58550000D03*
%TO.P,C1,2*%
%TO.N,Earth*%
X111061000Y-58550000D03*
%TD*%
D11*
%TO.P,R3,1*%
%TO.N,Net-(R1-Pad2)*%
X73348500Y-69350000D03*
%TO.P,R3,2*%
%TO.N,Net-(D1-A)*%
X75173500Y-69350000D03*
%TD*%
%TO.P,R2,1*%
%TO.N,Net-(U3-R)*%
X67661000Y-63750000D03*
%TO.P,R2,2*%
%TO.N,Net-(R2-Pad2)*%
X69486000Y-63750000D03*
%TD*%
D12*
%TO.P,E1,1,1*%
%TO.N,Net-(D1-K)*%
X85061000Y-52950000D03*
%TD*%
D11*
%TO.P,R1,1*%
%TO.N,Net-(U3-R)*%
X67661000Y-69350000D03*
%TO.P,R1,2*%
%TO.N,Net-(R1-Pad2)*%
X69486000Y-69350000D03*
%TD*%
D13*
%TO.P,U2,1,Rg*%
%TO.N,Net-(RV1-Pad1)*%
X101111000Y-58445000D03*
%TO.P,U2,2,-*%
%TO.N,Net-(U1-VOUT-)*%
X101111000Y-59715000D03*
%TO.P,U2,3,+*%
%TO.N,Net-(U1-VOUT+)*%
X101111000Y-60985000D03*
%TO.P,U2,4,V-*%
%TO.N,Earth*%
X101111000Y-62255000D03*
%TO.P,U2,5,Ref*%
X106411000Y-62255000D03*
%TO.P,U2,6*%
%TO.N,Net-(J1-Pin_2)*%
X106411000Y-60985000D03*
%TO.P,U2,7,V+*%
%TO.N,+3.3V*%
X106411000Y-59715000D03*
%TO.P,U2,8,Rg*%
%TO.N,Net-(RV1-Pad2)*%
X106411000Y-58445000D03*
%TD*%
D12*
%TO.P,E2,1,1*%
%TO.N,Net-(U1-ICC)*%
X91561000Y-53050000D03*
%TD*%
D14*
%TO.P,U1,1,VOUT+*%
%TO.N,Net-(U1-VOUT+)*%
X106111000Y-69850000D03*
%TO.P,U1,2*%
%TO.N,N/C*%
X106111000Y-68580000D03*
%TO.P,U1,3,GND*%
%TO.N,Earth*%
X106111000Y-67310000D03*
%TO.P,U1,4,VOUT-*%
%TO.N,Net-(U1-VOUT-)*%
X97361000Y-67310000D03*
%TO.P,U1,5,N-SUB*%
%TO.N,Net-(U1-ICC)*%
X97361000Y-68580000D03*
%TO.P,U1,6,ICC*%
X97361000Y-69850000D03*
%TD*%
D15*
%TO.P,C3,1*%
%TO.N,+3.3V*%
X115198500Y-55050000D03*
%TO.P,C3,2*%
%TO.N,Earth*%
X113123500Y-55050000D03*
%TD*%
D12*
%TO.P,TP1,1,1*%
%TO.N,Net-(RV1-Pad2)*%
X97861000Y-53050000D03*
%TD*%
D16*
%TO.P,J1,1,Pin_1*%
%TO.N,+3.3V*%
X119561000Y-58450000D03*
D17*
%TO.P,J1,2,Pin_2*%
%TO.N,Net-(J1-Pin_2)*%
X119561000Y-60990000D03*
%TO.P,J1,3,Pin_3*%
%TO.N,Earth*%
X119561000Y-63530000D03*
%TD*%
D18*
%TO.P,D1,1,K*%
%TO.N,Net-(D1-K)*%
X84672000Y-58770000D03*
D19*
%TO.P,D1,2,A*%
%TO.N,Net-(D1-A)*%
X84672000Y-68930000D03*
%TD*%
D20*
%TO.P,RV1,1,1*%
%TO.N,Net-(RV1-Pad1)*%
X94261000Y-62430000D03*
%TO.P,RV1,2,2*%
%TO.N,Net-(RV1-Pad2)*%
X94261000Y-59890000D03*
%TO.P,RV1,3,3*%
X94261000Y-57350000D03*
%TD*%
D21*
%TO.P,C4,1*%
%TO.N,+3.3V*%
X77761000Y-55387500D03*
%TO.P,C4,2*%
%TO.N,Earth*%
X77761000Y-57112500D03*
%TD*%
D12*
%TO.P,TP2,1,1*%
%TO.N,Net-(RV1-Pad1)*%
X104661000Y-53050000D03*
%TD*%
D22*
%TO.P,U3,1,R*%
%TO.N,Net-(U3-R)*%
X73931000Y-59155000D03*
%TO.P,U3,2,V-_2*%
%TO.N,Net-(D1-K)*%
X73931000Y-57885000D03*
%TO.P,U3,3,V-_3*%
X73931000Y-56615000D03*
%TO.P,U3,4,V+*%
%TO.N,+3.3V*%
X73931000Y-55345000D03*
%TO.P,U3,5,NC_5*%
%TO.N,unconnected-(U3-NC_5-Pad5)*%
X68991000Y-55345000D03*
%TO.P,U3,6,V-_6*%
%TO.N,Net-(D1-K)*%
X68991000Y-56615000D03*
%TO.P,U3,7,V-_7*%
X68991000Y-57885000D03*
%TO.P,U3,8,NC_8*%
%TO.N,unconnected-(U3-NC_8-Pad8)*%
X68991000Y-59155000D03*
%TD*%
D10*
%TO.P,C2,1*%
%TO.N,Earth*%
X92336000Y-68650000D03*
%TO.P,C2,2*%
%TO.N,Net-(U1-ICC)*%
X94061000Y-68650000D03*
%TD*%
D11*
%TO.P,R4,1*%
%TO.N,Net-(R2-Pad2)*%
X73348500Y-63750000D03*
%TO.P,R4,2*%
%TO.N,Net-(D1-K)*%
X75173500Y-63750000D03*
%TD*%
D23*
%TO.N,Earth*%
X101111000Y-63400000D03*
X90561000Y-68650000D03*
X80250000Y-58390000D03*
X106111000Y-64650000D03*
D24*
X112511000Y-57100000D03*
%TO.N,+3.3V*%
X113561000Y-52550000D03*
D23*
X79323500Y-55387500D03*
%TD*%
D25*
%TO.N,Earth*%
X92336000Y-68650000D02*
X90561000Y-68650000D01*
D26*
X101111000Y-63400000D02*
X101061000Y-63450000D01*
X106411000Y-62255000D02*
X106111000Y-62555000D01*
D25*
X77761000Y-57112500D02*
X78972500Y-57112500D01*
X106111000Y-62555000D02*
X106111000Y-64650000D01*
X78972500Y-57112500D02*
X80250000Y-58390000D01*
D27*
X112511000Y-57100000D02*
X111061000Y-58550000D01*
D25*
X101111000Y-62255000D02*
X101111000Y-63400000D01*
X106111000Y-64650000D02*
X106111000Y-67310000D01*
D27*
X113123500Y-56487500D02*
X112511000Y-57100000D01*
X113123500Y-55050000D02*
X113123500Y-56487500D01*
%TO.N,+3.3V*%
X113561000Y-52550000D02*
X113761000Y-52550000D01*
D25*
X106411000Y-59715000D02*
X108171000Y-59715000D01*
X109336000Y-54575000D02*
X111361000Y-52550000D01*
X108171000Y-59715000D02*
X109336000Y-58550000D01*
X119561000Y-58450000D02*
X119561000Y-56650000D01*
X77761000Y-55387500D02*
X73973500Y-55387500D01*
X111361000Y-52550000D02*
X113561000Y-52550000D01*
X109336000Y-58550000D02*
X109336000Y-54575000D01*
X77761000Y-55387500D02*
X79323500Y-55387500D01*
D26*
X79323500Y-55387500D02*
X79361000Y-55350000D01*
D28*
X115198500Y-53987500D02*
X115198500Y-55050000D01*
D25*
X117961000Y-55050000D02*
X115198500Y-55050000D01*
X119561000Y-56650000D02*
X117961000Y-55050000D01*
X113761000Y-52550000D02*
X115198500Y-53987500D01*
D26*
X73973500Y-55387500D02*
X73931000Y-55345000D01*
D28*
%TO.N,Net-(D1-K)*%
X82471000Y-60971000D02*
X84672000Y-58770000D01*
X68991000Y-56615000D02*
X73931000Y-56615000D01*
X75173500Y-63750000D02*
X76470000Y-63750000D01*
X68991000Y-57885000D02*
X73931000Y-57885000D01*
X75915000Y-57885000D02*
X79001000Y-60971000D01*
X85061000Y-58381000D02*
X84672000Y-58770000D01*
X85061000Y-52950000D02*
X85061000Y-58381000D01*
X78080000Y-63750000D02*
X79692000Y-63750000D01*
X76470000Y-63750000D02*
X78080000Y-63750000D01*
X68991000Y-56615000D02*
X68991000Y-57885000D01*
D26*
X84672000Y-53339000D02*
X85061000Y-52950000D01*
D28*
X73931000Y-56615000D02*
X73931000Y-57885000D01*
X79001000Y-60971000D02*
X82471000Y-60971000D01*
X79692000Y-63750000D02*
X82471000Y-60971000D01*
X73931000Y-57885000D02*
X75915000Y-57885000D01*
%TO.N,Net-(D1-A)*%
X84672000Y-68930000D02*
X75593500Y-68930000D01*
D26*
X84252000Y-69350000D02*
X84672000Y-68930000D01*
D28*
X75593500Y-68930000D02*
X75173500Y-69350000D01*
D29*
%TO.N,Net-(J1-Pin_2)*%
X106411000Y-60985000D02*
X119556000Y-60985000D01*
D27*
X119556000Y-60985000D02*
X119561000Y-60990000D01*
D28*
%TO.N,Net-(R1-Pad2)*%
X73348500Y-69350000D02*
X69486000Y-69350000D01*
%TO.N,Net-(U3-R)*%
X67661000Y-69350000D02*
X67661000Y-63750000D01*
X73931000Y-59155000D02*
X72125000Y-59155000D01*
X67661000Y-63619000D02*
X67661000Y-63750000D01*
X72125000Y-59155000D02*
X67661000Y-63619000D01*
%TO.N,Net-(R2-Pad2)*%
X69486000Y-63750000D02*
X73348500Y-63750000D01*
D29*
%TO.N,Net-(RV1-Pad1)*%
X101111000Y-58445000D02*
X103666000Y-58445000D01*
X96766000Y-58445000D02*
X101111000Y-58445000D01*
X104661000Y-57450000D02*
X104661000Y-53050000D01*
X96061000Y-60630000D02*
X96061000Y-59150000D01*
X94261000Y-62430000D02*
X96061000Y-60630000D01*
X103666000Y-58445000D02*
X104661000Y-57450000D01*
X96061000Y-59150000D02*
X96766000Y-58445000D01*
%TO.N,Net-(RV1-Pad2)*%
X100261000Y-49550000D02*
X97861000Y-51950000D01*
X96261000Y-57350000D02*
X97861000Y-55750000D01*
D27*
X97861000Y-51950000D02*
X97861000Y-53050000D01*
D29*
X108061000Y-56795000D02*
X108061000Y-51550000D01*
X108061000Y-51550000D02*
X106061000Y-49550000D01*
D27*
X94261000Y-59890000D02*
X94261000Y-57350000D01*
D29*
X106411000Y-58445000D02*
X108061000Y-56795000D01*
X97861000Y-55750000D02*
X97861000Y-53050000D01*
X106061000Y-49550000D02*
X100261000Y-49550000D01*
X94261000Y-57350000D02*
X96261000Y-57350000D01*
%TO.N,Net-(U1-VOUT-)*%
X97361000Y-67310000D02*
X97361000Y-60550000D01*
X97361000Y-60550000D02*
X98196000Y-59715000D01*
X98196000Y-59715000D02*
X101111000Y-59715000D01*
D26*
%TO.N,Net-(U1-VOUT+)*%
X105029000Y-69850000D02*
X106111000Y-69850000D01*
D29*
X101860999Y-60985000D02*
X104461000Y-63585001D01*
X104461000Y-69282000D02*
X105029000Y-69850000D01*
X101111000Y-60985000D02*
X101860999Y-60985000D01*
X104461000Y-63585001D02*
X104461000Y-69282000D01*
D27*
%TO.N,Net-(U1-ICC)*%
X97361000Y-68580000D02*
X97361000Y-69850000D01*
D25*
X94231000Y-66920000D02*
X94231000Y-68580000D01*
X91561000Y-64250000D02*
X94231000Y-66920000D01*
D27*
X94231000Y-68580000D02*
X94061000Y-68750000D01*
D25*
X97361000Y-68580000D02*
X94231000Y-68580000D01*
X91561000Y-53050000D02*
X91561000Y-64250000D01*
%TD*%
M02*
