%TF.GenerationSoftware,KiCad,Pcbnew,9.0.7-9.0.7~ubuntu24.04.1*%
%TF.CreationDate,2026-05-07T16:47:43-07:00*%
%TF.ProjectId,Barometer_Module,4261726f-6d65-4746-9572-5f4d6f64756c,rev?*%
%TF.SameCoordinates,Original*%
%TF.FileFunction,Legend,Top*%
%TF.FilePolarity,Positive*%
%FSLAX46Y46*%
G04 Gerber Fmt 4.6, Leading zero omitted, Abs format (unit mm)*
G04 Created by KiCad (PCBNEW 9.0.7-9.0.7~ubuntu24.04.1) date 2026-05-07 16:47:43*
%MOMM*%
%LPD*%
G01*
G04 APERTURE LIST*
%ADD10C,0.100000*%
%ADD11C,0.300000*%
%ADD12C,0.150000*%
%ADD13C,0.120000*%
%ADD14C,0.127000*%
%ADD15C,0.152400*%
%ADD16C,0.200000*%
G04 APERTURE END LIST*
D10*
X112695524Y-75350000D02*
G75*
G02*
X108026476Y-75350000I-2334524J0D01*
G01*
X108026476Y-75350000D02*
G75*
G02*
X112695524Y-75350000I2334524J0D01*
G01*
X108761000Y-73650000D02*
X111961000Y-77050000D01*
D11*
X119961828Y-54709774D02*
X119961828Y-55566917D01*
X119961828Y-55138346D02*
X118461828Y-55138346D01*
X118461828Y-55138346D02*
X118676114Y-55281203D01*
X118676114Y-55281203D02*
X118818971Y-55424060D01*
X118818971Y-55424060D02*
X118890400Y-55566917D01*
D10*
X108018646Y-66092419D02*
X108637693Y-66092419D01*
X108637693Y-66092419D02*
X108304360Y-66473371D01*
X108304360Y-66473371D02*
X108447217Y-66473371D01*
X108447217Y-66473371D02*
X108542455Y-66520990D01*
X108542455Y-66520990D02*
X108590074Y-66568609D01*
X108590074Y-66568609D02*
X108637693Y-66663847D01*
X108637693Y-66663847D02*
X108637693Y-66901942D01*
X108637693Y-66901942D02*
X108590074Y-66997180D01*
X108590074Y-66997180D02*
X108542455Y-67044800D01*
X108542455Y-67044800D02*
X108447217Y-67092419D01*
X108447217Y-67092419D02*
X108161503Y-67092419D01*
X108161503Y-67092419D02*
X108066265Y-67044800D01*
X108066265Y-67044800D02*
X108018646Y-66997180D01*
X108457693Y-71552419D02*
X107886265Y-71552419D01*
X108171979Y-71552419D02*
X108171979Y-70552419D01*
X108171979Y-70552419D02*
X108076741Y-70695276D01*
X108076741Y-70695276D02*
X107981503Y-70790514D01*
X107981503Y-70790514D02*
X107886265Y-70838133D01*
X95502455Y-70532419D02*
X95311979Y-70532419D01*
X95311979Y-70532419D02*
X95216741Y-70580038D01*
X95216741Y-70580038D02*
X95169122Y-70627657D01*
X95169122Y-70627657D02*
X95073884Y-70770514D01*
X95073884Y-70770514D02*
X95026265Y-70960990D01*
X95026265Y-70960990D02*
X95026265Y-71341942D01*
X95026265Y-71341942D02*
X95073884Y-71437180D01*
X95073884Y-71437180D02*
X95121503Y-71484800D01*
X95121503Y-71484800D02*
X95216741Y-71532419D01*
X95216741Y-71532419D02*
X95407217Y-71532419D01*
X95407217Y-71532419D02*
X95502455Y-71484800D01*
X95502455Y-71484800D02*
X95550074Y-71437180D01*
X95550074Y-71437180D02*
X95597693Y-71341942D01*
X95597693Y-71341942D02*
X95597693Y-71103847D01*
X95597693Y-71103847D02*
X95550074Y-71008609D01*
X95550074Y-71008609D02*
X95502455Y-70960990D01*
X95502455Y-70960990D02*
X95407217Y-70913371D01*
X95407217Y-70913371D02*
X95216741Y-70913371D01*
X95216741Y-70913371D02*
X95121503Y-70960990D01*
X95121503Y-70960990D02*
X95073884Y-71008609D01*
X95073884Y-71008609D02*
X95026265Y-71103847D01*
X108902979Y-76100038D02*
X108902979Y-74100038D01*
X108902979Y-74100038D02*
X109664884Y-74100038D01*
X109664884Y-74100038D02*
X109855360Y-74195276D01*
X109855360Y-74195276D02*
X109950598Y-74290514D01*
X109950598Y-74290514D02*
X110045836Y-74480990D01*
X110045836Y-74480990D02*
X110045836Y-74766704D01*
X110045836Y-74766704D02*
X109950598Y-74957180D01*
X109950598Y-74957180D02*
X109855360Y-75052419D01*
X109855360Y-75052419D02*
X109664884Y-75147657D01*
X109664884Y-75147657D02*
X108902979Y-75147657D01*
X110902979Y-76100038D02*
X110902979Y-74100038D01*
X110902979Y-74861942D02*
X111093455Y-74766704D01*
X111093455Y-74766704D02*
X111474408Y-74766704D01*
X111474408Y-74766704D02*
X111664884Y-74861942D01*
X111664884Y-74861942D02*
X111760122Y-74957180D01*
X111760122Y-74957180D02*
X111855360Y-75147657D01*
X111855360Y-75147657D02*
X111855360Y-75719085D01*
X111855360Y-75719085D02*
X111760122Y-75909561D01*
X111760122Y-75909561D02*
X111664884Y-76004800D01*
X111664884Y-76004800D02*
X111474408Y-76100038D01*
X111474408Y-76100038D02*
X111093455Y-76100038D01*
X111093455Y-76100038D02*
X110902979Y-76004800D01*
D12*
X110031833Y-57479580D02*
X109984214Y-57527200D01*
X109984214Y-57527200D02*
X109841357Y-57574819D01*
X109841357Y-57574819D02*
X109746119Y-57574819D01*
X109746119Y-57574819D02*
X109603262Y-57527200D01*
X109603262Y-57527200D02*
X109508024Y-57431961D01*
X109508024Y-57431961D02*
X109460405Y-57336723D01*
X109460405Y-57336723D02*
X109412786Y-57146247D01*
X109412786Y-57146247D02*
X109412786Y-57003390D01*
X109412786Y-57003390D02*
X109460405Y-56812914D01*
X109460405Y-56812914D02*
X109508024Y-56717676D01*
X109508024Y-56717676D02*
X109603262Y-56622438D01*
X109603262Y-56622438D02*
X109746119Y-56574819D01*
X109746119Y-56574819D02*
X109841357Y-56574819D01*
X109841357Y-56574819D02*
X109984214Y-56622438D01*
X109984214Y-56622438D02*
X110031833Y-56670057D01*
X110984214Y-57574819D02*
X110412786Y-57574819D01*
X110698500Y-57574819D02*
X110698500Y-56574819D01*
X110698500Y-56574819D02*
X110603262Y-56717676D01*
X110603262Y-56717676D02*
X110508024Y-56812914D01*
X110508024Y-56812914D02*
X110412786Y-56860533D01*
X74094333Y-68374819D02*
X73761000Y-67898628D01*
X73522905Y-68374819D02*
X73522905Y-67374819D01*
X73522905Y-67374819D02*
X73903857Y-67374819D01*
X73903857Y-67374819D02*
X73999095Y-67422438D01*
X73999095Y-67422438D02*
X74046714Y-67470057D01*
X74046714Y-67470057D02*
X74094333Y-67565295D01*
X74094333Y-67565295D02*
X74094333Y-67708152D01*
X74094333Y-67708152D02*
X74046714Y-67803390D01*
X74046714Y-67803390D02*
X73999095Y-67851009D01*
X73999095Y-67851009D02*
X73903857Y-67898628D01*
X73903857Y-67898628D02*
X73522905Y-67898628D01*
X74427667Y-67374819D02*
X75046714Y-67374819D01*
X75046714Y-67374819D02*
X74713381Y-67755771D01*
X74713381Y-67755771D02*
X74856238Y-67755771D01*
X74856238Y-67755771D02*
X74951476Y-67803390D01*
X74951476Y-67803390D02*
X74999095Y-67851009D01*
X74999095Y-67851009D02*
X75046714Y-67946247D01*
X75046714Y-67946247D02*
X75046714Y-68184342D01*
X75046714Y-68184342D02*
X74999095Y-68279580D01*
X74999095Y-68279580D02*
X74951476Y-68327200D01*
X74951476Y-68327200D02*
X74856238Y-68374819D01*
X74856238Y-68374819D02*
X74570524Y-68374819D01*
X74570524Y-68374819D02*
X74475286Y-68327200D01*
X74475286Y-68327200D02*
X74427667Y-68279580D01*
X68406833Y-62774819D02*
X68073500Y-62298628D01*
X67835405Y-62774819D02*
X67835405Y-61774819D01*
X67835405Y-61774819D02*
X68216357Y-61774819D01*
X68216357Y-61774819D02*
X68311595Y-61822438D01*
X68311595Y-61822438D02*
X68359214Y-61870057D01*
X68359214Y-61870057D02*
X68406833Y-61965295D01*
X68406833Y-61965295D02*
X68406833Y-62108152D01*
X68406833Y-62108152D02*
X68359214Y-62203390D01*
X68359214Y-62203390D02*
X68311595Y-62251009D01*
X68311595Y-62251009D02*
X68216357Y-62298628D01*
X68216357Y-62298628D02*
X67835405Y-62298628D01*
X68787786Y-61870057D02*
X68835405Y-61822438D01*
X68835405Y-61822438D02*
X68930643Y-61774819D01*
X68930643Y-61774819D02*
X69168738Y-61774819D01*
X69168738Y-61774819D02*
X69263976Y-61822438D01*
X69263976Y-61822438D02*
X69311595Y-61870057D01*
X69311595Y-61870057D02*
X69359214Y-61965295D01*
X69359214Y-61965295D02*
X69359214Y-62060533D01*
X69359214Y-62060533D02*
X69311595Y-62203390D01*
X69311595Y-62203390D02*
X68740167Y-62774819D01*
X68740167Y-62774819D02*
X69359214Y-62774819D01*
X83670524Y-50381009D02*
X84003857Y-50381009D01*
X84146714Y-50904819D02*
X83670524Y-50904819D01*
X83670524Y-50904819D02*
X83670524Y-49904819D01*
X83670524Y-49904819D02*
X84146714Y-49904819D01*
X85099095Y-50904819D02*
X84527667Y-50904819D01*
X84813381Y-50904819D02*
X84813381Y-49904819D01*
X84813381Y-49904819D02*
X84718143Y-50047676D01*
X84718143Y-50047676D02*
X84622905Y-50142914D01*
X84622905Y-50142914D02*
X84527667Y-50190533D01*
X68406833Y-68374819D02*
X68073500Y-67898628D01*
X67835405Y-68374819D02*
X67835405Y-67374819D01*
X67835405Y-67374819D02*
X68216357Y-67374819D01*
X68216357Y-67374819D02*
X68311595Y-67422438D01*
X68311595Y-67422438D02*
X68359214Y-67470057D01*
X68359214Y-67470057D02*
X68406833Y-67565295D01*
X68406833Y-67565295D02*
X68406833Y-67708152D01*
X68406833Y-67708152D02*
X68359214Y-67803390D01*
X68359214Y-67803390D02*
X68311595Y-67851009D01*
X68311595Y-67851009D02*
X68216357Y-67898628D01*
X68216357Y-67898628D02*
X67835405Y-67898628D01*
X69359214Y-68374819D02*
X68787786Y-68374819D01*
X69073500Y-68374819D02*
X69073500Y-67374819D01*
X69073500Y-67374819D02*
X68978262Y-67517676D01*
X68978262Y-67517676D02*
X68883024Y-67612914D01*
X68883024Y-67612914D02*
X68787786Y-67660533D01*
X102999095Y-56404819D02*
X102999095Y-57214342D01*
X102999095Y-57214342D02*
X103046714Y-57309580D01*
X103046714Y-57309580D02*
X103094333Y-57357200D01*
X103094333Y-57357200D02*
X103189571Y-57404819D01*
X103189571Y-57404819D02*
X103380047Y-57404819D01*
X103380047Y-57404819D02*
X103475285Y-57357200D01*
X103475285Y-57357200D02*
X103522904Y-57309580D01*
X103522904Y-57309580D02*
X103570523Y-57214342D01*
X103570523Y-57214342D02*
X103570523Y-56404819D01*
X103999095Y-56500057D02*
X104046714Y-56452438D01*
X104046714Y-56452438D02*
X104141952Y-56404819D01*
X104141952Y-56404819D02*
X104380047Y-56404819D01*
X104380047Y-56404819D02*
X104475285Y-56452438D01*
X104475285Y-56452438D02*
X104522904Y-56500057D01*
X104522904Y-56500057D02*
X104570523Y-56595295D01*
X104570523Y-56595295D02*
X104570523Y-56690533D01*
X104570523Y-56690533D02*
X104522904Y-56833390D01*
X104522904Y-56833390D02*
X103951476Y-57404819D01*
X103951476Y-57404819D02*
X104570523Y-57404819D01*
X90170524Y-50481009D02*
X90503857Y-50481009D01*
X90646714Y-51004819D02*
X90170524Y-51004819D01*
X90170524Y-51004819D02*
X90170524Y-50004819D01*
X90170524Y-50004819D02*
X90646714Y-50004819D01*
X91027667Y-50100057D02*
X91075286Y-50052438D01*
X91075286Y-50052438D02*
X91170524Y-50004819D01*
X91170524Y-50004819D02*
X91408619Y-50004819D01*
X91408619Y-50004819D02*
X91503857Y-50052438D01*
X91503857Y-50052438D02*
X91551476Y-50100057D01*
X91551476Y-50100057D02*
X91599095Y-50195295D01*
X91599095Y-50195295D02*
X91599095Y-50290533D01*
X91599095Y-50290533D02*
X91551476Y-50433390D01*
X91551476Y-50433390D02*
X90980048Y-51004819D01*
X90980048Y-51004819D02*
X91599095Y-51004819D01*
X100848965Y-71370244D02*
X100848965Y-72179889D01*
X100848965Y-72179889D02*
X100896592Y-72275141D01*
X100896592Y-72275141D02*
X100944218Y-72322768D01*
X100944218Y-72322768D02*
X101039470Y-72370394D01*
X101039470Y-72370394D02*
X101229975Y-72370394D01*
X101229975Y-72370394D02*
X101325227Y-72322768D01*
X101325227Y-72322768D02*
X101372854Y-72275141D01*
X101372854Y-72275141D02*
X101420480Y-72179889D01*
X101420480Y-72179889D02*
X101420480Y-71370244D01*
X102420630Y-72370394D02*
X101849115Y-72370394D01*
X102134872Y-72370394D02*
X102134872Y-71370244D01*
X102134872Y-71370244D02*
X102039620Y-71513122D01*
X102039620Y-71513122D02*
X101944368Y-71608375D01*
X101944368Y-71608375D02*
X101849115Y-71656001D01*
X113994333Y-57089580D02*
X113946714Y-57137200D01*
X113946714Y-57137200D02*
X113803857Y-57184819D01*
X113803857Y-57184819D02*
X113708619Y-57184819D01*
X113708619Y-57184819D02*
X113565762Y-57137200D01*
X113565762Y-57137200D02*
X113470524Y-57041961D01*
X113470524Y-57041961D02*
X113422905Y-56946723D01*
X113422905Y-56946723D02*
X113375286Y-56756247D01*
X113375286Y-56756247D02*
X113375286Y-56613390D01*
X113375286Y-56613390D02*
X113422905Y-56422914D01*
X113422905Y-56422914D02*
X113470524Y-56327676D01*
X113470524Y-56327676D02*
X113565762Y-56232438D01*
X113565762Y-56232438D02*
X113708619Y-56184819D01*
X113708619Y-56184819D02*
X113803857Y-56184819D01*
X113803857Y-56184819D02*
X113946714Y-56232438D01*
X113946714Y-56232438D02*
X113994333Y-56280057D01*
X114327667Y-56184819D02*
X114946714Y-56184819D01*
X114946714Y-56184819D02*
X114613381Y-56565771D01*
X114613381Y-56565771D02*
X114756238Y-56565771D01*
X114756238Y-56565771D02*
X114851476Y-56613390D01*
X114851476Y-56613390D02*
X114899095Y-56661009D01*
X114899095Y-56661009D02*
X114946714Y-56756247D01*
X114946714Y-56756247D02*
X114946714Y-56994342D01*
X114946714Y-56994342D02*
X114899095Y-57089580D01*
X114899095Y-57089580D02*
X114851476Y-57137200D01*
X114851476Y-57137200D02*
X114756238Y-57184819D01*
X114756238Y-57184819D02*
X114470524Y-57184819D01*
X114470524Y-57184819D02*
X114375286Y-57137200D01*
X114375286Y-57137200D02*
X114327667Y-57089580D01*
X95899095Y-50004819D02*
X96470523Y-50004819D01*
X96184809Y-51004819D02*
X96184809Y-50004819D01*
X96803857Y-51004819D02*
X96803857Y-50004819D01*
X96803857Y-50004819D02*
X97184809Y-50004819D01*
X97184809Y-50004819D02*
X97280047Y-50052438D01*
X97280047Y-50052438D02*
X97327666Y-50100057D01*
X97327666Y-50100057D02*
X97375285Y-50195295D01*
X97375285Y-50195295D02*
X97375285Y-50338152D01*
X97375285Y-50338152D02*
X97327666Y-50433390D01*
X97327666Y-50433390D02*
X97280047Y-50481009D01*
X97280047Y-50481009D02*
X97184809Y-50528628D01*
X97184809Y-50528628D02*
X96803857Y-50528628D01*
X98327666Y-51004819D02*
X97756238Y-51004819D01*
X98041952Y-51004819D02*
X98041952Y-50004819D01*
X98041952Y-50004819D02*
X97946714Y-50147676D01*
X97946714Y-50147676D02*
X97851476Y-50242914D01*
X97851476Y-50242914D02*
X97756238Y-50290533D01*
X122415819Y-61283333D02*
X123130104Y-61283333D01*
X123130104Y-61283333D02*
X123272961Y-61330952D01*
X123272961Y-61330952D02*
X123368200Y-61426190D01*
X123368200Y-61426190D02*
X123415819Y-61569047D01*
X123415819Y-61569047D02*
X123415819Y-61664285D01*
X123415819Y-60283333D02*
X123415819Y-60854761D01*
X123415819Y-60569047D02*
X122415819Y-60569047D01*
X122415819Y-60569047D02*
X122558676Y-60664285D01*
X122558676Y-60664285D02*
X122653914Y-60759523D01*
X122653914Y-60759523D02*
X122701533Y-60854761D01*
X83123977Y-65242201D02*
X81481638Y-65242201D01*
X81481638Y-65242201D02*
X81481638Y-64851168D01*
X81481638Y-64851168D02*
X81559845Y-64616548D01*
X81559845Y-64616548D02*
X81716258Y-64460135D01*
X81716258Y-64460135D02*
X81872671Y-64381929D01*
X81872671Y-64381929D02*
X82185498Y-64303722D01*
X82185498Y-64303722D02*
X82420118Y-64303722D01*
X82420118Y-64303722D02*
X82732944Y-64381929D01*
X82732944Y-64381929D02*
X82889357Y-64460135D01*
X82889357Y-64460135D02*
X83045771Y-64616548D01*
X83045771Y-64616548D02*
X83123977Y-64851168D01*
X83123977Y-64851168D02*
X83123977Y-65242201D01*
X83123977Y-62739590D02*
X83123977Y-63678069D01*
X83123977Y-63208829D02*
X81481638Y-63208829D01*
X81481638Y-63208829D02*
X81716258Y-63365243D01*
X81716258Y-63365243D02*
X81872671Y-63521656D01*
X81872671Y-63521656D02*
X81950878Y-63678069D01*
X98125819Y-60485238D02*
X97649628Y-60818571D01*
X98125819Y-61056666D02*
X97125819Y-61056666D01*
X97125819Y-61056666D02*
X97125819Y-60675714D01*
X97125819Y-60675714D02*
X97173438Y-60580476D01*
X97173438Y-60580476D02*
X97221057Y-60532857D01*
X97221057Y-60532857D02*
X97316295Y-60485238D01*
X97316295Y-60485238D02*
X97459152Y-60485238D01*
X97459152Y-60485238D02*
X97554390Y-60532857D01*
X97554390Y-60532857D02*
X97602009Y-60580476D01*
X97602009Y-60580476D02*
X97649628Y-60675714D01*
X97649628Y-60675714D02*
X97649628Y-61056666D01*
X97125819Y-60199523D02*
X98125819Y-59866190D01*
X98125819Y-59866190D02*
X97125819Y-59532857D01*
X98125819Y-58675714D02*
X98125819Y-59247142D01*
X98125819Y-58961428D02*
X97125819Y-58961428D01*
X97125819Y-58961428D02*
X97268676Y-59056666D01*
X97268676Y-59056666D02*
X97363914Y-59151904D01*
X97363914Y-59151904D02*
X97411533Y-59247142D01*
X79550580Y-56416666D02*
X79598200Y-56464285D01*
X79598200Y-56464285D02*
X79645819Y-56607142D01*
X79645819Y-56607142D02*
X79645819Y-56702380D01*
X79645819Y-56702380D02*
X79598200Y-56845237D01*
X79598200Y-56845237D02*
X79502961Y-56940475D01*
X79502961Y-56940475D02*
X79407723Y-56988094D01*
X79407723Y-56988094D02*
X79217247Y-57035713D01*
X79217247Y-57035713D02*
X79074390Y-57035713D01*
X79074390Y-57035713D02*
X78883914Y-56988094D01*
X78883914Y-56988094D02*
X78788676Y-56940475D01*
X78788676Y-56940475D02*
X78693438Y-56845237D01*
X78693438Y-56845237D02*
X78645819Y-56702380D01*
X78645819Y-56702380D02*
X78645819Y-56607142D01*
X78645819Y-56607142D02*
X78693438Y-56464285D01*
X78693438Y-56464285D02*
X78741057Y-56416666D01*
X78979152Y-55559523D02*
X79645819Y-55559523D01*
X78598200Y-55797618D02*
X79312485Y-56035713D01*
X79312485Y-56035713D02*
X79312485Y-55416666D01*
X102699095Y-50004819D02*
X103270523Y-50004819D01*
X102984809Y-51004819D02*
X102984809Y-50004819D01*
X103603857Y-51004819D02*
X103603857Y-50004819D01*
X103603857Y-50004819D02*
X103984809Y-50004819D01*
X103984809Y-50004819D02*
X104080047Y-50052438D01*
X104080047Y-50052438D02*
X104127666Y-50100057D01*
X104127666Y-50100057D02*
X104175285Y-50195295D01*
X104175285Y-50195295D02*
X104175285Y-50338152D01*
X104175285Y-50338152D02*
X104127666Y-50433390D01*
X104127666Y-50433390D02*
X104080047Y-50481009D01*
X104080047Y-50481009D02*
X103984809Y-50528628D01*
X103984809Y-50528628D02*
X103603857Y-50528628D01*
X104556238Y-50100057D02*
X104603857Y-50052438D01*
X104603857Y-50052438D02*
X104699095Y-50004819D01*
X104699095Y-50004819D02*
X104937190Y-50004819D01*
X104937190Y-50004819D02*
X105032428Y-50052438D01*
X105032428Y-50052438D02*
X105080047Y-50100057D01*
X105080047Y-50100057D02*
X105127666Y-50195295D01*
X105127666Y-50195295D02*
X105127666Y-50290533D01*
X105127666Y-50290533D02*
X105080047Y-50433390D01*
X105080047Y-50433390D02*
X104508619Y-51004819D01*
X104508619Y-51004819D02*
X105127666Y-51004819D01*
X71084095Y-60241819D02*
X71084095Y-61051342D01*
X71084095Y-61051342D02*
X71131714Y-61146580D01*
X71131714Y-61146580D02*
X71179333Y-61194200D01*
X71179333Y-61194200D02*
X71274571Y-61241819D01*
X71274571Y-61241819D02*
X71465047Y-61241819D01*
X71465047Y-61241819D02*
X71560285Y-61194200D01*
X71560285Y-61194200D02*
X71607904Y-61146580D01*
X71607904Y-61146580D02*
X71655523Y-61051342D01*
X71655523Y-61051342D02*
X71655523Y-60241819D01*
X72036476Y-60241819D02*
X72655523Y-60241819D01*
X72655523Y-60241819D02*
X72322190Y-60622771D01*
X72322190Y-60622771D02*
X72465047Y-60622771D01*
X72465047Y-60622771D02*
X72560285Y-60670390D01*
X72560285Y-60670390D02*
X72607904Y-60718009D01*
X72607904Y-60718009D02*
X72655523Y-60813247D01*
X72655523Y-60813247D02*
X72655523Y-61051342D01*
X72655523Y-61051342D02*
X72607904Y-61146580D01*
X72607904Y-61146580D02*
X72560285Y-61194200D01*
X72560285Y-61194200D02*
X72465047Y-61241819D01*
X72465047Y-61241819D02*
X72179333Y-61241819D01*
X72179333Y-61241819D02*
X72084095Y-61194200D01*
X72084095Y-61194200D02*
X72036476Y-61146580D01*
X93031833Y-67579580D02*
X92984214Y-67627200D01*
X92984214Y-67627200D02*
X92841357Y-67674819D01*
X92841357Y-67674819D02*
X92746119Y-67674819D01*
X92746119Y-67674819D02*
X92603262Y-67627200D01*
X92603262Y-67627200D02*
X92508024Y-67531961D01*
X92508024Y-67531961D02*
X92460405Y-67436723D01*
X92460405Y-67436723D02*
X92412786Y-67246247D01*
X92412786Y-67246247D02*
X92412786Y-67103390D01*
X92412786Y-67103390D02*
X92460405Y-66912914D01*
X92460405Y-66912914D02*
X92508024Y-66817676D01*
X92508024Y-66817676D02*
X92603262Y-66722438D01*
X92603262Y-66722438D02*
X92746119Y-66674819D01*
X92746119Y-66674819D02*
X92841357Y-66674819D01*
X92841357Y-66674819D02*
X92984214Y-66722438D01*
X92984214Y-66722438D02*
X93031833Y-66770057D01*
X93412786Y-66770057D02*
X93460405Y-66722438D01*
X93460405Y-66722438D02*
X93555643Y-66674819D01*
X93555643Y-66674819D02*
X93793738Y-66674819D01*
X93793738Y-66674819D02*
X93888976Y-66722438D01*
X93888976Y-66722438D02*
X93936595Y-66770057D01*
X93936595Y-66770057D02*
X93984214Y-66865295D01*
X93984214Y-66865295D02*
X93984214Y-66960533D01*
X93984214Y-66960533D02*
X93936595Y-67103390D01*
X93936595Y-67103390D02*
X93365167Y-67674819D01*
X93365167Y-67674819D02*
X93984214Y-67674819D01*
X74094333Y-62774819D02*
X73761000Y-62298628D01*
X73522905Y-62774819D02*
X73522905Y-61774819D01*
X73522905Y-61774819D02*
X73903857Y-61774819D01*
X73903857Y-61774819D02*
X73999095Y-61822438D01*
X73999095Y-61822438D02*
X74046714Y-61870057D01*
X74046714Y-61870057D02*
X74094333Y-61965295D01*
X74094333Y-61965295D02*
X74094333Y-62108152D01*
X74094333Y-62108152D02*
X74046714Y-62203390D01*
X74046714Y-62203390D02*
X73999095Y-62251009D01*
X73999095Y-62251009D02*
X73903857Y-62298628D01*
X73903857Y-62298628D02*
X73522905Y-62298628D01*
X74951476Y-62108152D02*
X74951476Y-62774819D01*
X74713381Y-61727200D02*
X74475286Y-62441485D01*
X74475286Y-62441485D02*
X75094333Y-62441485D01*
D13*
%TO.C,C1*%
X110052233Y-58040000D02*
X110344767Y-58040000D01*
X110052233Y-59060000D02*
X110344767Y-59060000D01*
%TO.C,R3*%
X74006276Y-68827500D02*
X74515724Y-68827500D01*
X74006276Y-69872500D02*
X74515724Y-69872500D01*
%TO.C,R2*%
X68318776Y-63227500D02*
X68828224Y-63227500D01*
X68318776Y-64272500D02*
X68828224Y-64272500D01*
%TO.C,E1*%
X86561000Y-52950000D02*
G75*
G02*
X83561000Y-52950000I-1500000J0D01*
G01*
X83561000Y-52950000D02*
G75*
G02*
X86561000Y-52950000I1500000J0D01*
G01*
%TO.C,R1*%
X68318776Y-68827500D02*
X68828224Y-68827500D01*
X68318776Y-69872500D02*
X68828224Y-69872500D01*
%TO.C,U2*%
X101701000Y-57790000D02*
X105821000Y-57790000D01*
X101701000Y-57910000D02*
X101701000Y-57790000D01*
X101701000Y-62910000D02*
X101701000Y-62790000D01*
X105821000Y-57790000D02*
X105821000Y-57910000D01*
X105821000Y-62790000D02*
X105821000Y-62910000D01*
X105821000Y-62910000D02*
X101701000Y-62910000D01*
X101101000Y-57900000D02*
X100861000Y-57570000D01*
X101341000Y-57570000D01*
X101101000Y-57900000D01*
G36*
X101101000Y-57900000D02*
G01*
X100861000Y-57570000D01*
X101341000Y-57570000D01*
X101101000Y-57900000D01*
G37*
%TO.C,E2*%
X93061000Y-53050000D02*
G75*
G02*
X90061000Y-53050000I-1500000J0D01*
G01*
X90061000Y-53050000D02*
G75*
G02*
X93061000Y-53050000I1500000J0D01*
G01*
D14*
%TO.C,U1*%
X98661000Y-66205000D02*
X98661000Y-66680000D01*
X98661000Y-70955000D02*
X98661000Y-70480000D01*
X104811000Y-66205000D02*
X98661000Y-66205000D01*
X104811000Y-66680000D02*
X104811000Y-66205000D01*
X104811000Y-70480000D02*
X104811000Y-70955000D01*
X104811000Y-70955000D02*
X98661000Y-70955000D01*
D13*
%TO.C,C3*%
X114422252Y-54315000D02*
X113899748Y-54315000D01*
X114422252Y-55785000D02*
X113899748Y-55785000D01*
%TO.C,TP1*%
X99361000Y-53050000D02*
G75*
G02*
X96361000Y-53050000I-1500000J0D01*
G01*
X96361000Y-53050000D02*
G75*
G02*
X99361000Y-53050000I1500000J0D01*
G01*
%TO.C,J1*%
X116161000Y-57100000D02*
X122211000Y-57100000D01*
X116161000Y-64900000D02*
X116161000Y-57100000D01*
X116261000Y-58450000D02*
X117271000Y-58450000D01*
X117271000Y-58450000D02*
X117271000Y-63530000D01*
X117271000Y-63530000D02*
X116261000Y-63530000D01*
X122211000Y-57100000D02*
X122211000Y-64900000D01*
X122211000Y-64900000D02*
X116161000Y-64900000D01*
D15*
%TO.C,D1*%
X83706800Y-61564000D02*
X83706800Y-66136000D01*
X83706800Y-66136000D02*
X85637200Y-66136000D01*
X85637200Y-61564000D02*
X83706800Y-61564000D01*
X85637200Y-66136000D02*
X85637200Y-61564000D01*
X86780200Y-63646800D02*
X86145200Y-63646800D01*
X86780200Y-63646800D02*
X86145200Y-64408800D01*
X86780200Y-63646800D02*
X86272200Y-64408800D01*
X86780200Y-63646800D02*
X86399200Y-64408800D01*
X86780200Y-63646800D02*
X86526200Y-64408800D01*
X86780200Y-63646800D02*
X86653200Y-64408800D01*
X86780200Y-63646800D02*
X86780200Y-63392800D01*
X86780200Y-63646800D02*
X86907200Y-64408800D01*
X86780200Y-63646800D02*
X87034200Y-64408800D01*
X86780200Y-63646800D02*
X87161200Y-64408800D01*
X86780200Y-63646800D02*
X87288200Y-64408800D01*
X86780200Y-63646800D02*
X87415200Y-64408800D01*
X86780200Y-64662800D02*
X86780200Y-63646800D01*
X87415200Y-63646800D02*
X86780200Y-63646800D01*
X87415200Y-64408800D02*
X86145200Y-64408800D01*
D13*
%TO.C,RV1*%
X91811000Y-56425000D02*
X94044000Y-56425000D01*
X91811000Y-63355000D02*
X91811000Y-56425000D01*
X94044000Y-63355000D02*
X91811000Y-63355000D01*
X94478000Y-56425000D02*
X96531000Y-56425000D01*
X96531000Y-56425000D02*
X96531000Y-63355000D01*
X96531000Y-63355000D02*
X94478000Y-63355000D01*
%TO.C,C4*%
X77251000Y-56103733D02*
X77251000Y-56396267D01*
X78271000Y-56103733D02*
X78271000Y-56396267D01*
%TO.C,TP2*%
X106161000Y-53050000D02*
G75*
G02*
X103161000Y-53050000I-1500000J0D01*
G01*
X103161000Y-53050000D02*
G75*
G02*
X106161000Y-53050000I1500000J0D01*
G01*
D14*
%TO.C,U3*%
X73411000Y-54725000D02*
X69511000Y-54725000D01*
X73411000Y-59775000D02*
X69511000Y-59775000D01*
D16*
X75601000Y-59555000D02*
G75*
G02*
X75401000Y-59555000I-100000J0D01*
G01*
X75401000Y-59555000D02*
G75*
G02*
X75601000Y-59555000I100000J0D01*
G01*
D13*
%TO.C,C2*%
X93052233Y-68140000D02*
X93344767Y-68140000D01*
X93052233Y-69160000D02*
X93344767Y-69160000D01*
%TO.C,R4*%
X74006276Y-63227500D02*
X74515724Y-63227500D01*
X74006276Y-64272500D02*
X74515724Y-64272500D01*
%TD*%
M02*
