%TF.GenerationSoftware,KiCad,Pcbnew,9.0.7-9.0.7~ubuntu24.04.1*%
%TF.CreationDate,2026-05-24T23:18:31-07:00*%
%TF.ProjectId,STM32_Shield,53544d33-325f-4536-9869-656c642e6b69,rev?*%
%TF.SameCoordinates,Original*%
%TF.FileFunction,Paste,Bot*%
%TF.FilePolarity,Positive*%
%FSLAX46Y46*%
G04 Gerber Fmt 4.6, Leading zero omitted, Abs format (unit mm)*
G04 Created by KiCad (PCBNEW 9.0.7-9.0.7~ubuntu24.04.1) date 2026-05-24 23:18:31*
%MOMM*%
%LPD*%
G01*
G04 APERTURE LIST*
G04 Aperture macros list*
%AMRoundRect*
0 Rectangle with rounded corners*
0 $1 Rounding radius*
0 $2 $3 $4 $5 $6 $7 $8 $9 X,Y pos of 4 corners*
0 Add a 4 corners polygon primitive as box body*
4,1,4,$2,$3,$4,$5,$6,$7,$8,$9,$2,$3,0*
0 Add four circle primitives for the rounded corners*
1,1,$1+$1,$2,$3*
1,1,$1+$1,$4,$5*
1,1,$1+$1,$6,$7*
1,1,$1+$1,$8,$9*
0 Add four rect primitives between the rounded corners*
20,1,$1+$1,$2,$3,$4,$5,0*
20,1,$1+$1,$4,$5,$6,$7,0*
20,1,$1+$1,$6,$7,$8,$9,0*
20,1,$1+$1,$8,$9,$2,$3,0*%
G04 Aperture macros list end*
%ADD10RoundRect,0.412500X0.412500X0.412500X-0.412500X0.412500X-0.412500X-0.412500X0.412500X-0.412500X0*%
%ADD11RoundRect,0.412500X0.587500X0.412500X-0.587500X0.412500X-0.587500X-0.412500X0.587500X-0.412500X0*%
%ADD12RoundRect,0.412500X0.412500X-0.412500X0.412500X0.412500X-0.412500X0.412500X-0.412500X-0.412500X0*%
%ADD13RoundRect,0.412500X0.412500X-0.587500X0.412500X0.587500X-0.412500X0.587500X-0.412500X-0.587500X0*%
%ADD14RoundRect,0.237500X-0.250000X-0.237500X0.250000X-0.237500X0.250000X0.237500X-0.250000X0.237500X0*%
%ADD15RoundRect,0.237500X0.237500X-0.250000X0.237500X0.250000X-0.237500X0.250000X-0.237500X-0.250000X0*%
%ADD16RoundRect,0.237500X-0.237500X0.250000X-0.237500X-0.250000X0.237500X-0.250000X0.237500X0.250000X0*%
%ADD17RoundRect,0.237500X-0.237500X0.300000X-0.237500X-0.300000X0.237500X-0.300000X0.237500X0.300000X0*%
%ADD18RoundRect,0.237500X-0.300000X-0.237500X0.300000X-0.237500X0.300000X0.237500X-0.300000X0.237500X0*%
%ADD19RoundRect,0.237500X0.250000X0.237500X-0.250000X0.237500X-0.250000X-0.237500X0.250000X-0.237500X0*%
%ADD20RoundRect,0.237500X0.237500X-0.300000X0.237500X0.300000X-0.237500X0.300000X-0.237500X-0.300000X0*%
G04 APERTURE END LIST*
D10*
%TO.C,D6*%
X125368975Y-99155800D03*
X125348975Y-101605800D03*
D11*
X122405225Y-100330800D03*
%TD*%
D12*
%TO.C,D5*%
X122986800Y-107289600D03*
X120536800Y-107269600D03*
D13*
X121811800Y-104325850D03*
%TD*%
D12*
%TO.C,D7*%
X102215400Y-130906150D03*
X99765400Y-130886150D03*
D13*
X101040400Y-127942400D03*
%TD*%
D14*
%TO.C,R17*%
X102642500Y-40880000D03*
X104467500Y-40880000D03*
%TD*%
D15*
%TO.C,R35*%
X143495000Y-52070000D03*
X143495000Y-50245000D03*
%TD*%
D16*
%TO.C,R16*%
X182132400Y-73835000D03*
X182132400Y-75660000D03*
%TD*%
D17*
%TO.C,C22*%
X136365000Y-97567500D03*
X136365000Y-99292500D03*
%TD*%
D16*
%TO.C,FB1*%
X73815000Y-112905000D03*
X73815000Y-114730000D03*
%TD*%
D17*
%TO.C,C23*%
X91465000Y-128155000D03*
X91465000Y-129880000D03*
%TD*%
D18*
%TO.C,C33*%
X115366800Y-128727200D03*
X117091800Y-128727200D03*
%TD*%
%TO.C,C32*%
X109202500Y-106980000D03*
X110927500Y-106980000D03*
%TD*%
%TO.C,C7*%
X109688300Y-62636400D03*
X111413300Y-62636400D03*
%TD*%
D15*
%TO.C,R34*%
X146225000Y-52060000D03*
X146225000Y-50235000D03*
%TD*%
D19*
%TO.C,R8*%
X138457500Y-41890000D03*
X136632500Y-41890000D03*
%TD*%
D10*
%TO.C,D8*%
X103118550Y-117951800D03*
X103098550Y-120401800D03*
D11*
X100154800Y-119126800D03*
%TD*%
D17*
%TO.C,C21*%
X140765000Y-104117500D03*
X140765000Y-105842500D03*
%TD*%
D15*
%TO.C,R36*%
X149265000Y-52395000D03*
X149265000Y-50570000D03*
%TD*%
D20*
%TO.C,C8*%
X163372800Y-80206000D03*
X163372800Y-78481000D03*
%TD*%
M02*
