%TF.GenerationSoftware,KiCad,Pcbnew,9.0.7-9.0.7~ubuntu24.04.1*%
%TF.CreationDate,2026-05-24T23:18:31-07:00*%
%TF.ProjectId,STM32_Shield,53544d33-325f-4536-9869-656c642e6b69,rev?*%
%TF.SameCoordinates,Original*%
%TF.FileFunction,Soldermask,Bot*%
%TF.FilePolarity,Negative*%
%FSLAX46Y46*%
G04 Gerber Fmt 4.6, Leading zero omitted, Abs format (unit mm)*
G04 Created by KiCad (PCBNEW 9.0.7-9.0.7~ubuntu24.04.1) date 2026-05-24 23:18:31*
%MOMM*%
%LPD*%
G01*
G04 APERTURE LIST*
G04 Aperture macros list*
%AMRoundRect*
0 Rectangle with rounded corners*
0 $1 Rounding radius*
0 $2 $3 $4 $5 $6 $7 $8 $9 X,Y pos of 4 corners*
0 Add a 4 corners polygon primitive as box body*
4,1,4,$2,$3,$4,$5,$6,$7,$8,$9,$2,$3,0*
0 Add four circle primitives for the rounded corners*
1,1,$1+$1,$2,$3*
1,1,$1+$1,$4,$5*
1,1,$1+$1,$6,$7*
1,1,$1+$1,$8,$9*
0 Add four rect primitives between the rounded corners*
20,1,$1+$1,$2,$3,$4,$5,0*
20,1,$1+$1,$4,$5,$6,$7,0*
20,1,$1+$1,$6,$7,$8,$9,0*
20,1,$1+$1,$8,$9,$2,$3,0*%
G04 Aperture macros list end*
%ADD10C,2.000000*%
%ADD11RoundRect,0.102000X-0.685000X-0.685000X0.685000X-0.685000X0.685000X0.685000X-0.685000X0.685000X0*%
%ADD12C,1.574000*%
%ADD13C,1.100000*%
%ADD14R,2.030000X1.730000*%
%ADD15O,2.030000X1.730000*%
%ADD16C,3.200000*%
%ADD17R,1.730000X2.030000*%
%ADD18O,1.730000X2.030000*%
%ADD19RoundRect,0.250000X-0.550000X-0.550000X0.550000X-0.550000X0.550000X0.550000X-0.550000X0.550000X0*%
%ADD20C,1.600000*%
%ADD21RoundRect,0.102000X-0.685000X0.685000X-0.685000X-0.685000X0.685000X-0.685000X0.685000X0.685000X0*%
%ADD22C,1.778800*%
%ADD23RoundRect,0.102000X0.685000X-0.685000X0.685000X0.685000X-0.685000X0.685000X-0.685000X-0.685000X0*%
%ADD24RoundRect,0.250000X-0.550000X0.550000X-0.550000X-0.550000X0.550000X-0.550000X0.550000X0.550000X0*%
%ADD25RoundRect,0.102000X-0.765000X-0.765000X0.765000X-0.765000X0.765000X0.765000X-0.765000X0.765000X0*%
%ADD26C,1.734000*%
%ADD27RoundRect,0.412500X0.412500X0.412500X-0.412500X0.412500X-0.412500X-0.412500X0.412500X-0.412500X0*%
%ADD28RoundRect,0.412500X0.587500X0.412500X-0.587500X0.412500X-0.587500X-0.412500X0.587500X-0.412500X0*%
%ADD29RoundRect,0.412500X0.412500X-0.412500X0.412500X0.412500X-0.412500X0.412500X-0.412500X-0.412500X0*%
%ADD30RoundRect,0.412500X0.412500X-0.587500X0.412500X0.587500X-0.412500X0.587500X-0.412500X-0.587500X0*%
%ADD31RoundRect,0.237500X-0.250000X-0.237500X0.250000X-0.237500X0.250000X0.237500X-0.250000X0.237500X0*%
%ADD32RoundRect,0.237500X0.237500X-0.250000X0.237500X0.250000X-0.237500X0.250000X-0.237500X-0.250000X0*%
%ADD33RoundRect,0.237500X-0.237500X0.250000X-0.237500X-0.250000X0.237500X-0.250000X0.237500X0.250000X0*%
%ADD34RoundRect,0.237500X-0.237500X0.300000X-0.237500X-0.300000X0.237500X-0.300000X0.237500X0.300000X0*%
%ADD35RoundRect,0.237500X-0.300000X-0.237500X0.300000X-0.237500X0.300000X0.237500X-0.300000X0.237500X0*%
%ADD36RoundRect,0.237500X0.250000X0.237500X-0.250000X0.237500X-0.250000X-0.237500X0.250000X-0.237500X0*%
%ADD37RoundRect,0.102000X0.685000X0.685000X-0.685000X0.685000X-0.685000X-0.685000X0.685000X-0.685000X0*%
%ADD38RoundRect,0.237500X0.237500X-0.300000X0.237500X0.300000X-0.237500X0.300000X-0.237500X-0.300000X0*%
G04 APERTURE END LIST*
D10*
%TO.C,REF\u002A\u002A*%
X96367600Y-102539800D03*
%TD*%
%TO.C,TP10*%
X97055000Y-39630000D03*
%TD*%
%TO.C,TP17*%
X72105000Y-123170000D03*
%TD*%
%TO.C,TP7*%
X143065000Y-45980000D03*
%TD*%
%TO.C,TP3*%
X72615000Y-43580000D03*
%TD*%
%TO.C,TP4*%
X72615000Y-48280000D03*
%TD*%
%TO.C,TP11*%
X154885000Y-43570000D03*
%TD*%
D11*
%TO.C,J2*%
X108742500Y-43450000D03*
D12*
X111282500Y-43450000D03*
X113822500Y-43450000D03*
X116362500Y-43450000D03*
X108742500Y-40910000D03*
X111282500Y-40910000D03*
X113822500Y-40910000D03*
X116362500Y-40910000D03*
%TD*%
D13*
%TO.C,J4*%
X162225000Y-110240000D03*
D14*
X160065000Y-105160000D03*
D15*
X160065000Y-107700000D03*
X160065000Y-110240000D03*
X160065000Y-112780000D03*
%TD*%
D16*
%TO.C,H1*%
X65595000Y-32690000D03*
%TD*%
D17*
%TO.C,J8*%
X128778000Y-145542000D03*
D18*
X126238000Y-145542000D03*
X123698000Y-145542000D03*
%TD*%
D10*
%TO.C,TP9*%
X181132400Y-68710000D03*
%TD*%
D17*
%TO.C,J7*%
X112084300Y-145474150D03*
D18*
X109544300Y-145474150D03*
X107004300Y-145474150D03*
%TD*%
D10*
%TO.C,TP13*%
X155305000Y-48870000D03*
%TD*%
D14*
%TO.C,J9*%
X165565000Y-43740000D03*
D15*
X165565000Y-46280000D03*
X165565000Y-48820000D03*
%TD*%
D19*
%TO.C,U8*%
X112471200Y-121158000D03*
D20*
X112471200Y-123698000D03*
X112471200Y-126238000D03*
X112471200Y-128778000D03*
X112471200Y-131318000D03*
X112471200Y-133858000D03*
X112471200Y-136398000D03*
X120091200Y-136398000D03*
X120091200Y-133858000D03*
X120091200Y-131318000D03*
X120091200Y-128778000D03*
X120091200Y-126238000D03*
X120091200Y-123698000D03*
X120091200Y-121158000D03*
%TD*%
D21*
%TO.C,J3*%
X176652400Y-78635000D03*
D12*
X176652400Y-81175000D03*
X176652400Y-83715000D03*
X176652400Y-86255000D03*
X179192400Y-78635000D03*
X179192400Y-81175000D03*
X179192400Y-83715000D03*
X179192400Y-86255000D03*
%TD*%
D16*
%TO.C,H3*%
X179665000Y-147670000D03*
%TD*%
D10*
%TO.C,TP2*%
X72615000Y-38980000D03*
%TD*%
D22*
%TO.C,J1*%
X67665000Y-104760000D03*
X67665000Y-107300000D03*
X67665000Y-109840000D03*
X67665000Y-112380000D03*
X67665000Y-114920000D03*
X67665000Y-117460000D03*
%TD*%
D10*
%TO.C,TP14*%
X166345000Y-105200000D03*
%TD*%
%TO.C,TP8*%
X171415000Y-108830000D03*
%TD*%
D19*
%TO.C,U3*%
X106842400Y-55016400D03*
D20*
X106842400Y-57556400D03*
X106842400Y-60096400D03*
X106842400Y-62636400D03*
X106842400Y-65176400D03*
X106842400Y-67716400D03*
X106842400Y-70256400D03*
X114462400Y-70256400D03*
X114462400Y-67716400D03*
X114462400Y-65176400D03*
X114462400Y-62636400D03*
X114462400Y-60096400D03*
X114462400Y-57556400D03*
X114462400Y-55016400D03*
%TD*%
D23*
%TO.C,JP2*%
X74065000Y-95880000D03*
D12*
X74065000Y-93340000D03*
%TD*%
D10*
%TO.C,TP12*%
X154485000Y-38270000D03*
%TD*%
D23*
%TO.C,JP1*%
X78765000Y-95880000D03*
D12*
X78765000Y-93340000D03*
%TD*%
D24*
%TO.C,U2*%
X170992800Y-75641200D03*
D20*
X168452800Y-75641200D03*
X165912800Y-75641200D03*
X163372800Y-75641200D03*
X160832800Y-75641200D03*
X158292800Y-75641200D03*
X155752800Y-75641200D03*
X155752800Y-83261200D03*
X158292800Y-83261200D03*
X160832800Y-83261200D03*
X163372800Y-83261200D03*
X165912800Y-83261200D03*
X168452800Y-83261200D03*
X170992800Y-83261200D03*
%TD*%
D10*
%TO.C,TP16*%
X71925000Y-129860000D03*
%TD*%
D16*
%TO.C,H4*%
X179665000Y-32690000D03*
%TD*%
D17*
%TO.C,J6*%
X143865600Y-145542000D03*
D18*
X141325600Y-145542000D03*
X138785600Y-145542000D03*
%TD*%
D10*
%TO.C,TP15*%
X156835000Y-98420000D03*
%TD*%
D21*
%TO.C,JP3*%
X61755000Y-108090000D03*
D12*
X61755000Y-110630000D03*
%TD*%
D10*
%TO.C,TP1*%
X90240000Y-47480000D03*
%TD*%
D25*
%TO.C,U1*%
X85265000Y-82360000D03*
D26*
X87805000Y-82360000D03*
X85265000Y-84900000D03*
X87805000Y-84900000D03*
X85265000Y-87440000D03*
X87805000Y-87440000D03*
X85265000Y-89980000D03*
X87805000Y-89980000D03*
X85265000Y-92520000D03*
X87805000Y-92520000D03*
X85265000Y-95060000D03*
X87805000Y-95060000D03*
X85265000Y-97600000D03*
X87805000Y-97600000D03*
X85265000Y-100140000D03*
X87805000Y-100140000D03*
X85265000Y-102680000D03*
X87805000Y-102680000D03*
X85265000Y-105220000D03*
X87805000Y-105220000D03*
X85265000Y-107760000D03*
X87805000Y-107760000D03*
X85265000Y-110300000D03*
X87805000Y-110300000D03*
X85265000Y-112840000D03*
X87805000Y-112840000D03*
X85265000Y-115380000D03*
X87805000Y-115380000D03*
X85265000Y-117920000D03*
X87805000Y-117920000D03*
X85265000Y-120460000D03*
X87805000Y-120460000D03*
X85265000Y-123000000D03*
X87805000Y-123000000D03*
X85265000Y-125540000D03*
X87805000Y-125540000D03*
X85265000Y-128080000D03*
X87805000Y-128080000D03*
D25*
X146225000Y-82360000D03*
D26*
X148765000Y-82360000D03*
X146225000Y-84900000D03*
X148765000Y-84900000D03*
X146225000Y-87440000D03*
X148765000Y-87440000D03*
X146225000Y-89980000D03*
X148765000Y-89980000D03*
X146225000Y-92520000D03*
X148765000Y-92520000D03*
X146225000Y-95060000D03*
X148765000Y-95060000D03*
X146225000Y-97600000D03*
X148765000Y-97600000D03*
X146225000Y-100140000D03*
X148765000Y-100140000D03*
X146225000Y-102680000D03*
X148765000Y-102680000D03*
X146225000Y-105220000D03*
X148765000Y-105220000D03*
X146225000Y-107760000D03*
X148765000Y-107760000D03*
X146225000Y-110300000D03*
X148765000Y-110300000D03*
X146225000Y-112840000D03*
X148765000Y-112840000D03*
X146225000Y-115380000D03*
X148765000Y-115380000D03*
X146225000Y-117920000D03*
X148765000Y-117920000D03*
X146225000Y-120460000D03*
X148765000Y-120460000D03*
X146225000Y-123000000D03*
X148765000Y-123000000D03*
X146225000Y-125540000D03*
X148765000Y-125540000D03*
X146225000Y-128080000D03*
X148765000Y-128080000D03*
%TD*%
D16*
%TO.C,H2*%
X65595000Y-147670000D03*
%TD*%
D10*
%TO.C,TP6*%
X177315000Y-109130000D03*
%TD*%
D17*
%TO.C,J5*%
X94879200Y-145471600D03*
D18*
X92339200Y-145471600D03*
X89799200Y-145471600D03*
%TD*%
D10*
%TO.C,TP5*%
X142975000Y-40720000D03*
%TD*%
D27*
%TO.C,D6*%
X125368975Y-99155800D03*
X125348975Y-101605800D03*
D28*
X122405225Y-100330800D03*
%TD*%
D29*
%TO.C,D5*%
X122986800Y-107289600D03*
X120536800Y-107269600D03*
D30*
X121811800Y-104325850D03*
%TD*%
D29*
%TO.C,D7*%
X102215400Y-130906150D03*
X99765400Y-130886150D03*
D30*
X101040400Y-127942400D03*
%TD*%
D31*
%TO.C,R17*%
X102642500Y-40880000D03*
X104467500Y-40880000D03*
%TD*%
D32*
%TO.C,R35*%
X143495000Y-52070000D03*
X143495000Y-50245000D03*
%TD*%
D33*
%TO.C,R16*%
X182132400Y-73835000D03*
X182132400Y-75660000D03*
%TD*%
D34*
%TO.C,C22*%
X136365000Y-97567500D03*
X136365000Y-99292500D03*
%TD*%
D33*
%TO.C,FB1*%
X73815000Y-112905000D03*
X73815000Y-114730000D03*
%TD*%
D34*
%TO.C,C23*%
X91465000Y-128155000D03*
X91465000Y-129880000D03*
%TD*%
D35*
%TO.C,C33*%
X115366800Y-128727200D03*
X117091800Y-128727200D03*
%TD*%
%TO.C,C32*%
X109202500Y-106980000D03*
X110927500Y-106980000D03*
%TD*%
%TO.C,C7*%
X109688300Y-62636400D03*
X111413300Y-62636400D03*
%TD*%
D32*
%TO.C,R34*%
X146225000Y-52060000D03*
X146225000Y-50235000D03*
%TD*%
D36*
%TO.C,R8*%
X138457500Y-41890000D03*
X136632500Y-41890000D03*
%TD*%
D27*
%TO.C,D8*%
X103118550Y-117951800D03*
X103098550Y-120401800D03*
D28*
X100154800Y-119126800D03*
%TD*%
D34*
%TO.C,C21*%
X140765000Y-104117500D03*
X140765000Y-105842500D03*
%TD*%
D32*
%TO.C,R36*%
X149265000Y-52395000D03*
X149265000Y-50570000D03*
%TD*%
D37*
%TO.C,J10*%
X127565000Y-110740000D03*
D12*
X127565000Y-113280000D03*
X125025000Y-110740000D03*
X125025000Y-113280000D03*
X122485000Y-110740000D03*
X122485000Y-113280000D03*
X119945000Y-110740000D03*
X119945000Y-113280000D03*
X117405000Y-110740000D03*
X117405000Y-113280000D03*
X114865000Y-110740000D03*
X114865000Y-113280000D03*
X112325000Y-110740000D03*
X112325000Y-113280000D03*
X109785000Y-110740000D03*
X109785000Y-113280000D03*
X107245000Y-110740000D03*
X107245000Y-113280000D03*
X104705000Y-110740000D03*
X104705000Y-113280000D03*
%TD*%
D38*
%TO.C,C8*%
X163372800Y-80206000D03*
X163372800Y-78481000D03*
%TD*%
M02*
