M48
; DRILL file {KiCad 9.0.7-9.0.7~ubuntu24.04.1} date 2026-05-24T23:18:21-0700
; FORMAT={-:-/ absolute / metric / decimal}
; #@! TF.CreationDate,2026-05-24T23:18:21-07:00
; #@! TF.GenerationSoftware,Kicad,Pcbnew,9.0.7-9.0.7~ubuntu24.04.1
; #@! TF.FileFunction,Plated,1,4,PTH
FMAT,2
METRIC
; #@! TA.AperFunction,Plated,PTH,ViaDrill
T1C0.254
; #@! TA.AperFunction,Plated,PTH,ViaDrill
T2C0.300
; #@! TA.AperFunction,Plated,PTH,ViaDrill
T3C0.330
; #@! TA.AperFunction,Plated,PTH,ViaDrill
T4C0.381
; #@! TA.AperFunction,Plated,PTH,ComponentDrill
T5C0.800
; #@! TA.AperFunction,Plated,PTH,ComponentDrill
T6C1.000
; #@! TA.AperFunction,Plated,PTH,ComponentDrill
T7C1.020
; #@! TA.AperFunction,Plated,PTH,ComponentDrill
T8C1.067
%
G90
G05
T1
X93.965Y-113.665
X104.965Y-90.98
X160.065Y-98.48
T2
X92.965Y-98.48
X99.949Y-104.191
X107.965Y-92.555
X133.965Y-39.18
X141.765Y-70.28
X143.765Y-62.68
X145.065Y-62.28
X145.165Y-70.48
X149.965Y-72.38
X150.365Y-68.18
X150.865Y-59.58
X150.965Y-64.88
X156.765Y-115.28
X159.865Y-115.48
X163.424Y-71.72
T3
X78.34Y-117.53
X78.502Y-107.18
X83.265Y-53.33
X84.115Y-41.83
X84.462Y-147.294
X89.135Y-131.17
X93.116Y-129.743
X94.665Y-121.971
X97.485Y-130.886
X99.263Y-147.269
X100.665Y-89.48
X101.549Y-123.596
X103.073Y-62.535
X103.119Y-117.952
X108.763Y-128.422
X109.402Y-99.593
X111.127Y-94.58
X117.094Y-147.371
X117.983Y-107.264
X125.369Y-99.156
X127.604Y-101.606
X128.965Y-88.967
X128.965Y-96.012
X130.127Y-105.817
X130.165Y-88.28
X130.165Y-96.08
X130.565Y-116.58
X132.029Y-93.777
X133.053Y-147.429
X133.706Y-80.162
X134.264Y-78.689
X139.705Y-63.15
X140.535Y-73.08
X141.653Y-73.792
X141.653Y-78.567
X141.755Y-65.75
X143.165Y-59.155
X145.002Y-78.817
X145.671Y-80.38
X147.866Y-140.259
X151.34Y-78.005
X151.615Y-103.88
X153.115Y-121.13
X155.275Y-101.99
X159.664Y-95.504
X166.624Y-97.028
X167.742Y-92.913
X174.752Y-91.288
X178.156Y-103.429
X178.333Y-76.429
X179.265Y-99.78
T4
X106.865Y-78.78
X121.195Y-41.45
X121.395Y-36.45
X127.254Y-50.698
X127.356Y-53.137
X129.54Y-43.739
X135.915Y-49.251
X164.3Y-101.105
T5
X106.842Y-55.016
X106.842Y-57.556
X106.842Y-60.096
X106.842Y-62.636
X106.842Y-65.176
X106.842Y-67.716
X106.842Y-70.256
X112.471Y-121.158
X112.471Y-123.698
X112.471Y-126.238
X112.471Y-128.778
X112.471Y-131.318
X112.471Y-133.858
X112.471Y-136.398
X114.462Y-55.016
X114.462Y-57.556
X114.462Y-60.096
X114.462Y-62.636
X114.462Y-65.176
X114.462Y-67.716
X114.462Y-70.256
X120.091Y-121.158
X120.091Y-123.698
X120.091Y-126.238
X120.091Y-128.778
X120.091Y-131.318
X120.091Y-133.858
X120.091Y-136.398
X155.753Y-75.641
X155.753Y-83.261
X158.293Y-75.641
X158.293Y-83.261
X160.833Y-75.641
X160.833Y-83.261
X163.373Y-75.641
X163.373Y-83.261
X165.913Y-75.641
X165.913Y-83.261
X168.453Y-75.641
X168.453Y-83.261
X170.993Y-75.641
X170.993Y-83.261
T6
X71.925Y-129.86
X72.105Y-123.17
X72.615Y-38.98
X72.615Y-43.58
X72.615Y-48.28
X90.24Y-47.48
X96.368Y-102.54
X97.055Y-39.63
X142.975Y-40.72
X143.065Y-45.98
X154.485Y-38.27
X154.885Y-43.57
X155.305Y-48.87
X156.835Y-98.42
X166.345Y-105.2
X171.415Y-108.83
X177.315Y-109.13
X181.132Y-68.71
T7
X61.755Y-108.09
X61.755Y-110.63
X74.065Y-93.34
X74.065Y-95.88
X78.765Y-93.34
X78.765Y-95.88
X85.265Y-82.36
X85.265Y-84.9
X85.265Y-87.44
X85.265Y-89.98
X85.265Y-92.52
X85.265Y-95.06
X85.265Y-97.6
X85.265Y-100.14
X85.265Y-102.68
X85.265Y-105.22
X85.265Y-107.76
X85.265Y-110.3
X85.265Y-112.84
X85.265Y-115.38
X85.265Y-117.92
X85.265Y-120.46
X85.265Y-123.0
X85.265Y-125.54
X85.265Y-128.08
X87.805Y-82.36
X87.805Y-84.9
X87.805Y-87.44
X87.805Y-89.98
X87.805Y-92.52
X87.805Y-95.06
X87.805Y-97.6
X87.805Y-100.14
X87.805Y-102.68
X87.805Y-105.22
X87.805Y-107.76
X87.805Y-110.3
X87.805Y-112.84
X87.805Y-115.38
X87.805Y-117.92
X87.805Y-120.46
X87.805Y-123.0
X87.805Y-125.54
X87.805Y-128.08
X89.799Y-145.472
X92.339Y-145.472
X94.879Y-145.472
X104.705Y-110.74
X104.705Y-113.28
X107.004Y-145.474
X107.245Y-110.74
X107.245Y-113.28
X108.742Y-40.91
X108.742Y-43.45
X109.544Y-145.474
X109.785Y-110.74
X109.785Y-113.28
X111.282Y-40.91
X111.282Y-43.45
X112.084Y-145.474
X112.325Y-110.74
X112.325Y-113.28
X113.822Y-40.91
X113.822Y-43.45
X114.865Y-110.74
X114.865Y-113.28
X116.362Y-40.91
X116.362Y-43.45
X117.405Y-110.74
X117.405Y-113.28
X119.945Y-110.74
X119.945Y-113.28
X122.485Y-110.74
X122.485Y-113.28
X123.698Y-145.542
X125.025Y-110.74
X125.025Y-113.28
X126.238Y-145.542
X127.565Y-110.74
X127.565Y-113.28
X128.778Y-145.542
X138.786Y-145.542
X141.326Y-145.542
X143.866Y-145.542
X146.225Y-82.36
X146.225Y-84.9
X146.225Y-87.44
X146.225Y-89.98
X146.225Y-92.52
X146.225Y-95.06
X146.225Y-97.6
X146.225Y-100.14
X146.225Y-102.68
X146.225Y-105.22
X146.225Y-107.76
X146.225Y-110.3
X146.225Y-112.84
X146.225Y-115.38
X146.225Y-117.92
X146.225Y-120.46
X146.225Y-123.0
X146.225Y-125.54
X146.225Y-128.08
X148.765Y-82.36
X148.765Y-84.9
X148.765Y-87.44
X148.765Y-89.98
X148.765Y-92.52
X148.765Y-95.06
X148.765Y-97.6
X148.765Y-100.14
X148.765Y-102.68
X148.765Y-105.22
X148.765Y-107.76
X148.765Y-110.3
X148.765Y-112.84
X148.765Y-115.38
X148.765Y-117.92
X148.765Y-120.46
X148.765Y-123.0
X148.765Y-125.54
X148.765Y-128.08
X160.065Y-105.16
X160.065Y-107.7
X160.065Y-110.24
X160.065Y-112.78
X165.565Y-43.74
X165.565Y-46.28
X165.565Y-48.82
X176.652Y-78.635
X176.652Y-81.175
X176.652Y-83.715
X176.652Y-86.255
X179.192Y-78.635
X179.192Y-81.175
X179.192Y-83.715
X179.192Y-86.255
T8
X67.665Y-104.76
X67.665Y-107.3
X67.665Y-109.84
X67.665Y-112.38
X67.665Y-114.92
X67.665Y-117.46
M30
